<?xml version="1.0" standalone="no"?>
 <!DOCTYPE svg PUBLIC "-//W3C//DTD SVG 1.1//EN" 
 "http://www.w3.org/Graphics/SVG/1.1/DTD/svg11.dtd"> 
<svg
  xmlns:svg="http://www.w3.org/2000/svg"
  xmlns="http://www.w3.org/2000/svg"
  xmlns:xlink="http://www.w3.org/1999/xlink"
  version="1.1"
  width="10.541000cm" height="5.468620cm" viewBox="0 0 41500 21530">
<title>SVG Picture created as amiga_a520_svid-F_SilkS.svg date 2023/02/13 11:47:42 </title>
  <desc>Picture generated by PCBNEW </desc>
<g style="fill:#000000; fill-opacity:1;stroke:#000000; stroke-opacity:1;
stroke-linecap:round; stroke-linejoin:round;"
 transform="translate(0 0) scale(1 1)">
</g>
<g style="fill:#000000; fill-opacity:0.0; 
stroke:#000000; stroke-width:-0.000393701; stroke-opacity:1; 
stroke-linecap:round; stroke-linejoin:round;">
</g>
<g style="fill:#000000; fill-opacity:0.0; 
stroke:#000000; stroke-width:47.2441; stroke-opacity:1; 
stroke-linecap:round; stroke-linejoin:round;">
<path d="M14047 3254
L11984 3254
" />
<path d="M14047 2176
L11984 2176
" />
<path d="M14047 3254
L14047 3130
" />
<path d="M14047 2300
L14047 2176
" />
<path d="M11984 3254
L11984 3130
" />
<path d="M11984 2300
L11984 2176
" />
<path d="M1250 20239
L1250 20014
" />
<path d="M1250 19416
L1250 19191
" />
<path d="M1250 20239
L8773 20239
" />
<path d="M8773 20239
L8773 19836
" />
<path d="M8773 19594
L8773 19191
" />
<path d="M1250 19191
L8773 19191
" />
<path d="M700 19191
L1000 19191
" />
<path d="M700 19715
L700 19191
" />
<path d="M37011 3532
L35988 3532
" />
<path d="M37011 4398
L37011 3532
" />
<path d="M35988 4398
L37011 4398
" />
<path d="M35988 4201
L35988 4398
" />
<path d="M35988 3532
L35988 4201
" />
<path d="M38511 3532
L37488 3532
" />
<path d="M38511 4398
L38511 3532
" />
<path d="M37488 4398
L38511 4398
" />
<path d="M37488 4201
L37488 4398
" />
<path d="M37488 3532
L37488 4201
" />
<path d="M38511 19282
L37488 19282
" />
<path d="M38511 20148
L38511 19282
" />
<path d="M37488 20148
L38511 20148
" />
<path d="M37488 19951
L37488 20148
" />
<path d="M37488 19282
L37488 19951
" />
<path d="M40011 4532
L38988 4532
" />
<path d="M40011 5398
L40011 4532
" />
<path d="M38988 5398
L40011 5398
" />
<path d="M38988 5201
L38988 5398
" />
<path d="M38988 4532
L38988 5201
" />
<path d="M33976 18191
L34500 18191
" />
<path d="M33976 18715
L33976 18191
" />
<path d="M33976 19215
L35023 19215
" />
<path d="M35023 19215
L35023 20239
" />
<path d="M33976 19215
L33976 20239
" />
<path d="M33976 20239
L35023 20239
" />
<path d="M38511 4532
L37488 4532
" />
<path d="M38511 5398
L38511 4532
" />
<path d="M37488 5398
L38511 5398
" />
<path d="M37488 5201
L37488 5398
" />
<path d="M37488 4532
L37488 5201
" />
<path d="M33976 691
L34500 691
" />
<path d="M33976 1215
L33976 691
" />
<path d="M33976 1715
L35023 1715
" />
<path d="M35023 1715
L35023 2739
" />
<path d="M33976 1715
L33976 2739
" />
<path d="M33976 2739
L35023 2739
" />
<path d="M37511 10782
L36488 10782
" />
<path d="M37511 11648
L37511 10782
" />
<path d="M36488 11648
L37511 11648
" />
<path d="M36488 11451
L36488 11648
" />
<path d="M36488 10782
L36488 11451
" />
<path d="M40511 7782
L39488 7782
" />
<path d="M40511 8648
L40511 7782
" />
<path d="M39488 8648
L40511 8648
" />
<path d="M39488 8451
L39488 8648
" />
<path d="M39488 7782
L39488 8451
" />
<path d="M40511 13282
L39488 13282
" />
<path d="M40511 14148
L40511 13282
" />
<path d="M39488 14148
L40511 14148
" />
<path d="M39488 13951
L39488 14148
" />
<path d="M39488 13282
L39488 13951
" />
<path d="M37511 6782
L36488 6782
" />
<path d="M37511 7648
L37511 6782
" />
<path d="M36488 7648
L37511 7648
" />
<path d="M36488 7451
L36488 7648
" />
<path d="M36488 6782
L36488 7451
" />
<path d="M40011 3532
L38988 3532
" />
<path d="M40011 4398
L40011 3532
" />
<path d="M38988 4398
L40011 4398
" />
<path d="M38988 4201
L38988 4398
" />
<path d="M38988 3532
L38988 4201
" />
<path d="M33976 11191
L34500 11191
" />
<path d="M33976 11715
L33976 11191
" />
<path d="M33976 12215
L35023 12215
" />
<path d="M35023 12215
L35023 13239
" />
<path d="M33976 12215
L33976 13239
" />
<path d="M33976 13239
L35023 13239
" />
<path d="M38511 2532
L37488 2532
" />
<path d="M38511 3398
L38511 2532
" />
<path d="M37488 3398
L38511 3398
" />
<path d="M37488 3201
L37488 3398
" />
<path d="M37488 2532
L37488 3201
" />
<path d="M33976 7691
L34500 7691
" />
<path d="M33976 8215
L33976 7691
" />
<path d="M33976 8715
L35023 8715
" />
<path d="M35023 8715
L35023 9739
" />
<path d="M33976 8715
L33976 9739
" />
<path d="M33976 9739
L35023 9739
" />
<path d="M37511 13282
L36488 13282
" />
<path d="M37511 14148
L37511 13282
" />
<path d="M36488 14148
L37511 14148
" />
<path d="M36488 13951
L36488 14148
" />
<path d="M36488 13282
L36488 13951
" />
<path d="M40011 2532
L38988 2532
" />
<path d="M40011 3398
L40011 2532
" />
<path d="M38988 3398
L40011 3398
" />
<path d="M38988 3201
L38988 3398
" />
<path d="M38988 2532
L38988 3201
" />
<path d="M41011 782
L39988 782
" />
<path d="M41011 1648
L41011 782
" />
<path d="M39988 1648
L41011 1648
" />
<path d="M39988 1451
L39988 1648
" />
<path d="M39988 782
L39988 1451
" />
<path d="M33976 14691
L34500 14691
" />
<path d="M33976 15215
L33976 14691
" />
<path d="M33976 15715
L35023 15715
" />
<path d="M35023 15715
L35023 16739
" />
<path d="M33976 15715
L33976 16739
" />
<path d="M33976 16739
L35023 16739
" />
<path d="M37011 4782
L35988 4782
" />
<path d="M37011 5648
L37011 4782
" />
<path d="M35988 5648
L37011 5648
" />
<path d="M35988 5451
L35988 5648
" />
<path d="M35988 4782
L35988 5451
" />
<path d="M33976 4191
L34500 4191
" />
<path d="M33976 4715
L33976 4191
" />
<path d="M33976 5215
L35023 5215
" />
<path d="M35023 5215
L35023 6239
" />
<path d="M33976 5215
L33976 6239
" />
<path d="M33976 6239
L35023 6239
" />
<path d="M37511 7782
L36488 7782
" />
<path d="M37511 8648
L37511 7782
" />
<path d="M36488 8648
L37511 8648
" />
<path d="M36488 8451
L36488 8648
" />
<path d="M36488 7782
L36488 8451
" />
<path d="M37511 19282
L36488 19282
" />
<path d="M37511 20148
L37511 19282
" />
<path d="M36488 20148
L37511 20148
" />
<path d="M36488 19951
L36488 20148
" />
<path d="M36488 19282
L36488 19951
" />
<path d="M37511 16282
L36488 16282
" />
<path d="M37511 17148
L37511 16282
" />
<path d="M36488 17148
L37511 17148
" />
<path d="M36488 16951
L36488 17148
" />
<path d="M36488 16282
L36488 16951
" />
<path d="M23047 17254
L20984 17254
" />
<path d="M23047 16176
L20984 16176
" />
<path d="M23047 17254
L23047 17130
" />
<path d="M23047 16300
L23047 16176
" />
<path d="M20984 17254
L20984 17130
" />
<path d="M20984 16300
L20984 16176
" />
<path d="M17377 14514
L17377 13939
" />
<path d="M18622 14514
L18622 13664
" />
<path d="M18622 14514
L18255 14514
" />
<path d="M17377 14514
L17744 14514
" />
<path d="M26113 20321
L27633 20321
" />
<path d="M27633 20321
L27633 20221
" />
<path d="M26113 20321
L24593 20321
" />
<path d="M24593 20321
L24593 20221
" />
<path d="M26113 16180
L27633 16180
" />
<path d="M27633 16180
L27633 16280
" />
<path d="M26113 16180
L24593 16180
" />
<path d="M24593 16180
L24593 16280
" />
<path d="M24593 16280
L23879 16280
" />
<path d="M23543 8239
L23543 4191
" />
<path d="M21456 8239
L23543 8239
" />
<path d="M23543 4191
L22893 4191
" />
<path d="M21456 4191
L21456 8239
" />
<path d="M22106 4191
L21456 4191
" />
<path d="M24000 5207
L22641 5207
" />
<path d="M24000 7223
L23232 7223
" />
<path d="M24000 7223
L24767 7223
" />
<path d="M24000 5207
L24767 5207
" />
<path d="M22106.3 4191.93 A393.701 393.701 0.0 0 0 22893.7 4191.93" />
<path d="M13543 8239
L13543 4191
" />
<path d="M11456 8239
L13543 8239
" />
<path d="M13543 4191
L12893 4191
" />
<path d="M11456 4191
L11456 8239
" />
<path d="M12106 4191
L11456 4191
" />
<path d="M14000 5207
L12641 5207
" />
<path d="M14000 7223
L13232 7223
" />
<path d="M14000 7223
L14767 7223
" />
<path d="M14000 5207
L14767 5207
" />
<path d="M12106.3 4191.93 A393.701 393.701 0.0 0 0 12893.7 4191.93" />
<path d="M3543 8239
L3543 4191
" />
<path d="M1456 8239
L3543 8239
" />
<path d="M3543 4191
L2893 4191
" />
<path d="M1456 4191
L1456 8239
" />
<path d="M2106 4191
L1456 4191
" />
<path d="M4000 5207
L2641 5207
" />
<path d="M4000 7223
L3232 7223
" />
<path d="M4000 7223
L4767 7223
" />
<path d="M4000 5207
L4767 5207
" />
<path d="M2106.3 4191.93 A393.701 393.701 0.0 0 0 2893.7 4191.93" />
<path d="M30858 11929
L30858 12501
" />
<path d="M30141 11929
L30141 12501
" />
<path d="M30858 18929
L30858 19501
" />
<path d="M30141 18929
L30141 19501
" />
<path d="M30858 15504
L30858 16077
" />
<path d="M30141 15504
L30141 16077
" />
<path d="M18713 19357
L19286 19357
" />
<path d="M18713 20073
L19286 20073
" />
<path d="M23641 14501
L23641 13929
" />
<path d="M24358 14501
L24358 13929
" />
<path d="M18713 17857
L19286 17857
" />
<path d="M18713 18573
L19286 18573
" />
<path d="M22141 14501
L22141 13929
" />
<path d="M22858 14501
L22858 13929
" />
<path d="M18713 16357
L19286 16357
" />
<path d="M18713 17073
L19286 17073
" />
<path d="M20641 14501
L20641 13929
" />
<path d="M21358 14501
L21358 13929
" />
<path d="M5286 10573
L4713 10573
" />
<path d="M5286 9857
L4713 9857
" />
<path d="M16286 15073
L15713 15073
" />
<path d="M16286 14357
L15713 14357
" />
<path d="M16286 13573
L15713 13573
" />
<path d="M16286 12857
L15713 12857
" />
<path d="M27213 8357
L27786 8357
" />
<path d="M27213 9073
L27786 9073
" />
<path d="M27138 3857
L27710 3857
" />
<path d="M27138 4573
L27710 4573
" />
<path d="M27213 5357
L27786 5357
" />
<path d="M27213 6073
L27786 6073
" />
<path d="M27213 2357
L27786 2357
" />
<path d="M27213 3073
L27786 3073
" />
<path d="M27213 6857
L27786 6857
" />
<path d="M27213 7573
L27786 7573
" />
<path d="M21213 11357
L21786 11357
" />
<path d="M21213 12073
L21786 12073
" />
<path d="M25361 10573
L24789 10573
" />
<path d="M25361 9857
L24789 9857
" />
<path d="M30858 1429
L30858 2001
" />
<path d="M30141 1429
L30141 2001
" />
<path d="M27213 9857
L27786 9857
" />
<path d="M27213 10573
L27786 10573
" />
<path d="M17213 3857
L17786 3857
" />
<path d="M17213 4573
L17786 4573
" />
<path d="M15713 11357
L16286 11357
" />
<path d="M15713 12073
L16286 12073
" />
<path d="M17213 2357
L17786 2357
" />
<path d="M17213 3073
L17786 3073
" />
<path d="M17213 6857
L17786 6857
" />
<path d="M17213 7573
L17786 7573
" />
<path d="M12213 11357
L12786 11357
" />
<path d="M12213 12073
L12786 12073
" />
<path d="M15286 10573
L14713 10573
" />
<path d="M15286 9857
L14713 9857
" />
<path d="M30858 4929
L30858 5501
" />
<path d="M30141 4929
L30141 5501
" />
<path d="M17213 9857
L17786 9857
" />
<path d="M17213 10573
L17786 10573
" />
<path d="M17213 8357
L17786 8357
" />
<path d="M17213 9073
L17786 9073
" />
<path d="M7213 8357
L7786 8357
" />
<path d="M7213 9073
L7786 9073
" />
<path d="M7213 3857
L7786 3857
" />
<path d="M7213 4573
L7786 4573
" />
<path d="M7213 5357
L7786 5357
" />
<path d="M7213 6073
L7786 6073
" />
<path d="M7786 3073
L7213 3073
" />
<path d="M7786 2357
L7213 2357
" />
<path d="M7786 7573
L7213 7573
" />
<path d="M7786 6857
L7213 6857
" />
<path d="M2213 11357
L2786 11357
" />
<path d="M2213 12073
L2786 12073
" />
<path d="M3358 15429
L3358 16001
" />
<path d="M2641 15429
L2641 16001
" />
<path d="M2358 15429
L2358 16001
" />
<path d="M1641 15429
L1641 16001
" />
<path d="M30858 8353
L30858 8926
" />
<path d="M30141 8353
L30141 8926
" />
<path d="M1358 15429
L1358 16001
" />
<path d="M641 15429
L641 16001
" />
<path d="M7213 9857
L7786 9857
" />
<path d="M7213 10573
L7786 10573
" />
<path d="M17791 13943
L19208 13943
" />
<path d="M19223.8 13939.4 A1023.62 1023.62 0.0 0 0 18500 12191.9" />
<path d="M18500 12191.9 A1023.62 1023.62 0.0 0 0 17776.2 13939.4" />
<path d="M10925 18412
L10925 17018
" />
<path d="M10925 17018
L8074 17018
" />
<path d="M8074 17018
L8074 18412
" />
<path d="M8074 18412
L10925 18412
" />
<path d="M11090 17715
L10925 17715
" />
<path d="M7909 17715
L8074 17715
" />
<path d="M10925 15412
L10925 14018
" />
<path d="M10925 14018
L8074 14018
" />
<path d="M8074 14018
L8074 15412
" />
<path d="M8074 15412
L10925 15412
" />
<path d="M11090 14715
L10925 14715
" />
<path d="M7909 14715
L8074 14715
" />
<path d="M31476 20239
L32523 20239
" />
<path d="M31476 19215
L31476 20239
" />
<path d="M32523 19215
L32523 20239
" />
<path d="M31476 19215
L32523 19215
" />
<path d="M31476 18715
L31476 18191
" />
<path d="M31476 18191
L32000 18191
" />
<path d="M31476 13239
L32523 13239
" />
<path d="M31476 12215
L31476 13239
" />
<path d="M32523 12215
L32523 13239
" />
<path d="M31476 12215
L32523 12215
" />
<path d="M31476 11715
L31476 11191
" />
<path d="M31476 11191
L32000 11191
" />
<path d="M31476 16739
L32523 16739
" />
<path d="M31476 15715
L31476 16739
" />
<path d="M32523 15715
L32523 16739
" />
<path d="M31476 15715
L32523 15715
" />
<path d="M31476 15215
L31476 14691
" />
<path d="M31476 14691
L32000 14691
" />
<path d="M31476 2739
L32523 2739
" />
<path d="M31476 1715
L31476 2739
" />
<path d="M32523 1715
L32523 2739
" />
<path d="M31476 1715
L32523 1715
" />
<path d="M31476 1215
L31476 691
" />
<path d="M31476 691
L32000 691
" />
<path d="M31476 9739
L32523 9739
" />
<path d="M31476 8715
L31476 9739
" />
<path d="M32523 8715
L32523 9739
" />
<path d="M31476 8715
L32523 8715
" />
<path d="M31476 8215
L31476 7691
" />
<path d="M31476 7691
L32000 7691
" />
<path d="M31476 6239
L32523 6239
" />
<path d="M31476 5215
L31476 6239
" />
<path d="M32523 5215
L32523 6239
" />
<path d="M31476 5215
L32523 5215
" />
<path d="M31476 4715
L31476 4191
" />
<path d="M31476 4191
L32000 4191
" />
<path d="M28047 15254
L25984 15254
" />
<path d="M28047 14176
L25984 14176
" />
<path d="M28047 15254
L28047 15130
" />
<path d="M28047 14300
L28047 14176
" />
<path d="M25984 15254
L25984 15130
" />
<path d="M25984 14300
L25984 14176
" />
<path d="M20952 9176
L23015 9176
" />
<path d="M20952 10254
L23015 10254
" />
<path d="M20952 9176
L20952 9300
" />
<path d="M20952 10130
L20952 10254
" />
<path d="M23015 9176
L23015 9300
" />
<path d="M23015 10130
L23015 10254
" />
<path d="M24047 3254
L21984 3254
" />
<path d="M24047 2176
L21984 2176
" />
<path d="M24047 3254
L24047 3130
" />
<path d="M24047 2300
L24047 2176
" />
<path d="M21984 3254
L21984 3130
" />
<path d="M21984 2300
L21984 2176
" />
<circle cx="5492.13" cy="17715.6" r="1031.5" /> 
<path d="M5492 16699
L5492 18731
" />
<path d="M5507 16699
L5507 18731
" />
<path d="M5523 16700
L5523 18730
" />
<path d="M5539 16700
L5539 18730
" />
<path d="M5555 16701
L5555 18729
" />
<path d="M5570 16702
L5570 18728
" />
<path d="M5586 16704
L5586 17306
" />
<path d="M5586 18125
L5586 18726
" />
<path d="M5602 16705
L5602 17306
" />
<path d="M5602 18125
L5602 18725
" />
<path d="M5618 16707
L5618 17306
" />
<path d="M5618 18125
L5618 18723
" />
<path d="M5633 16709
L5633 17306
" />
<path d="M5633 18125
L5633 18721
" />
<path d="M5649 16711
L5649 17306
" />
<path d="M5649 18125
L5649 18719
" />
<path d="M5665 16714
L5665 17306
" />
<path d="M5665 18125
L5665 18716
" />
<path d="M5681 16717
L5681 17306
" />
<path d="M5681 18125
L5681 18713
" />
<path d="M5696 16720
L5696 17306
" />
<path d="M5696 18125
L5696 18710
" />
<path d="M5712 16723
L5712 17306
" />
<path d="M5712 18125
L5712 18707
" />
<path d="M5728 16726
L5728 17306
" />
<path d="M5728 18125
L5728 18704
" />
<path d="M5744 16730
L5744 17306
" />
<path d="M5744 18125
L5744 18700
" />
<path d="M5759 16734
L5759 17306
" />
<path d="M5759 18125
L5759 18696
" />
<path d="M5775 16739
L5775 17306
" />
<path d="M5775 18125
L5775 18691
" />
<path d="M5791 16743
L5791 17306
" />
<path d="M5791 18125
L5791 18687
" />
<path d="M5807 16749
L5807 17306
" />
<path d="M5807 18125
L5807 18682
" />
<path d="M5823 16754
L5823 17306
" />
<path d="M5823 18125
L5823 18676
" />
<path d="M5838 16759
L5838 17306
" />
<path d="M5838 18125
L5838 18671
" />
<path d="M5854 16765
L5854 17306
" />
<path d="M5854 18125
L5854 18665
" />
<path d="M5870 16771
L5870 17306
" />
<path d="M5870 18125
L5870 18659
" />
<path d="M5886 16777
L5886 17306
" />
<path d="M5886 18125
L5886 18653
" />
<path d="M5901 16784
L5901 17306
" />
<path d="M5901 18125
L5901 18646
" />
<path d="M5917 16791
L5917 17306
" />
<path d="M5917 18125
L5917 18639
" />
<path d="M5933 16798
L5933 17306
" />
<path d="M5933 18125
L5933 18632
" />
<path d="M5949 16806
L5949 17306
" />
<path d="M5949 18125
L5949 18625
" />
<path d="M5964 16813
L5964 17306
" />
<path d="M5964 18125
L5964 18617
" />
<path d="M5980 16822
L5980 17306
" />
<path d="M5980 18125
L5980 18608
" />
<path d="M5996 16830
L5996 17306
" />
<path d="M5996 18125
L5996 18600
" />
<path d="M6012 16839
L6012 17306
" />
<path d="M6012 18125
L6012 18591
" />
<path d="M6027 16849
L6027 17306
" />
<path d="M6027 18125
L6027 18581
" />
<path d="M6043 16859
L6043 17306
" />
<path d="M6043 18125
L6043 18571
" />
<path d="M6059 16869
L6059 17306
" />
<path d="M6059 18125
L6059 18561
" />
<path d="M6075 16880
L6075 17306
" />
<path d="M6075 18125
L6075 18550
" />
<path d="M6090 16890
L6090 17306
" />
<path d="M6090 18125
L6090 18540
" />
<path d="M6106 16902
L6106 17306
" />
<path d="M6106 18125
L6106 18528
" />
<path d="M6122 16914
L6122 17306
" />
<path d="M6122 18125
L6122 18516
" />
<path d="M6138 16926
L6138 17306
" />
<path d="M6138 18125
L6138 18504
" />
<path d="M6153 16939
L6153 17306
" />
<path d="M6153 18125
L6153 18491
" />
<path d="M6169 16952
L6169 17306
" />
<path d="M6169 18125
L6169 18478
" />
<path d="M6185 16967
L6185 17306
" />
<path d="M6185 18125
L6185 18463
" />
<path d="M6201 16981
L6201 17306
" />
<path d="M6201 18125
L6201 18449
" />
<path d="M6216 16996
L6216 17306
" />
<path d="M6216 18125
L6216 18434
" />
<path d="M6232 17012
L6232 17306
" />
<path d="M6232 18125
L6232 18418
" />
<path d="M6248 17029
L6248 17306
" />
<path d="M6248 18125
L6248 18401
" />
<path d="M6264 17046
L6264 17306
" />
<path d="M6264 18125
L6264 18384
" />
<path d="M6279 17064
L6279 17306
" />
<path d="M6279 18125
L6279 18366
" />
<path d="M6295 17083
L6295 17306
" />
<path d="M6295 18125
L6295 18347
" />
<path d="M6311 17103
L6311 17306
" />
<path d="M6311 18125
L6311 18327
" />
<path d="M6327 17125
L6327 17306
" />
<path d="M6327 18125
L6327 18306
" />
<path d="M6342 17147
L6342 17306
" />
<path d="M6342 18125
L6342 18283
" />
<path d="M6358 17171
L6358 17306
" />
<path d="M6358 18125
L6358 18260
" />
<path d="M6374 17196
L6374 17306
" />
<path d="M6374 18125
L6374 18234
" />
<path d="M6390 17223
L6390 17306
" />
<path d="M6390 18125
L6390 18208
" />
<path d="M6405 17251
L6405 18179
" />
<path d="M6421 17283
L6421 18147
" />
<path d="M6437 17317
L6437 18113
" />
<path d="M6453 17355
L6453 18075
" />
<path d="M6468 17398
L6468 18032
" />
<path d="M6484 17449
L6484 17982
" />
<path d="M6500 17511
L6500 17919
" />
<path d="M6516 17603
L6516 17827
" />
<path d="M4387 17134
L4584 17134
" />
<path d="M4486 17036
L4486 17233
" />
<circle cx="5507.87" cy="14715.6" r="1031.5" /> 
<path d="M5507 15731
L5507 13699
" />
<path d="M5492 15731
L5492 13699
" />
<path d="M5476 15730
L5476 13700
" />
<path d="M5460 15730
L5460 13700
" />
<path d="M5444 15729
L5444 13701
" />
<path d="M5429 15728
L5429 13702
" />
<path d="M5413 15726
L5413 15125
" />
<path d="M5413 14306
L5413 13704
" />
<path d="M5397 15725
L5397 15125
" />
<path d="M5397 14306
L5397 13705
" />
<path d="M5381 15723
L5381 15125
" />
<path d="M5381 14306
L5381 13707
" />
<path d="M5366 15721
L5366 15125
" />
<path d="M5366 14306
L5366 13709
" />
<path d="M5350 15719
L5350 15125
" />
<path d="M5350 14306
L5350 13711
" />
<path d="M5334 15716
L5334 15125
" />
<path d="M5334 14306
L5334 13714
" />
<path d="M5318 15713
L5318 15125
" />
<path d="M5318 14306
L5318 13717
" />
<path d="M5303 15710
L5303 15125
" />
<path d="M5303 14306
L5303 13720
" />
<path d="M5287 15707
L5287 15125
" />
<path d="M5287 14306
L5287 13723
" />
<path d="M5271 15704
L5271 15125
" />
<path d="M5271 14306
L5271 13726
" />
<path d="M5255 15700
L5255 15125
" />
<path d="M5255 14306
L5255 13730
" />
<path d="M5240 15696
L5240 15125
" />
<path d="M5240 14306
L5240 13734
" />
<path d="M5224 15691
L5224 15125
" />
<path d="M5224 14306
L5224 13739
" />
<path d="M5208 15687
L5208 15125
" />
<path d="M5208 14306
L5208 13743
" />
<path d="M5192 15682
L5192 15125
" />
<path d="M5192 14306
L5192 13749
" />
<path d="M5176 15676
L5176 15125
" />
<path d="M5176 14306
L5176 13754
" />
<path d="M5161 15671
L5161 15125
" />
<path d="M5161 14306
L5161 13759
" />
<path d="M5145 15665
L5145 15125
" />
<path d="M5145 14306
L5145 13765
" />
<path d="M5129 15659
L5129 15125
" />
<path d="M5129 14306
L5129 13771
" />
<path d="M5113 15653
L5113 15125
" />
<path d="M5113 14306
L5113 13777
" />
<path d="M5098 15646
L5098 15125
" />
<path d="M5098 14306
L5098 13784
" />
<path d="M5082 15639
L5082 15125
" />
<path d="M5082 14306
L5082 13791
" />
<path d="M5066 15632
L5066 15125
" />
<path d="M5066 14306
L5066 13798
" />
<path d="M5050 15625
L5050 15125
" />
<path d="M5050 14306
L5050 13806
" />
<path d="M5035 15617
L5035 15125
" />
<path d="M5035 14306
L5035 13813
" />
<path d="M5019 15608
L5019 15125
" />
<path d="M5019 14306
L5019 13822
" />
<path d="M5003 15600
L5003 15125
" />
<path d="M5003 14306
L5003 13830
" />
<path d="M4987 15591
L4987 15125
" />
<path d="M4987 14306
L4987 13839
" />
<path d="M4972 15581
L4972 15125
" />
<path d="M4972 14306
L4972 13849
" />
<path d="M4956 15571
L4956 15125
" />
<path d="M4956 14306
L4956 13859
" />
<path d="M4940 15561
L4940 15125
" />
<path d="M4940 14306
L4940 13869
" />
<path d="M4924 15550
L4924 15125
" />
<path d="M4924 14306
L4924 13880
" />
<path d="M4909 15540
L4909 15125
" />
<path d="M4909 14306
L4909 13890
" />
<path d="M4893 15528
L4893 15125
" />
<path d="M4893 14306
L4893 13902
" />
<path d="M4877 15516
L4877 15125
" />
<path d="M4877 14306
L4877 13914
" />
<path d="M4861 15504
L4861 15125
" />
<path d="M4861 14306
L4861 13926
" />
<path d="M4846 15491
L4846 15125
" />
<path d="M4846 14306
L4846 13939
" />
<path d="M4830 15478
L4830 15125
" />
<path d="M4830 14306
L4830 13952
" />
<path d="M4814 15463
L4814 15125
" />
<path d="M4814 14306
L4814 13967
" />
<path d="M4798 15449
L4798 15125
" />
<path d="M4798 14306
L4798 13981
" />
<path d="M4783 15434
L4783 15125
" />
<path d="M4783 14306
L4783 13996
" />
<path d="M4767 15418
L4767 15125
" />
<path d="M4767 14306
L4767 14012
" />
<path d="M4751 15401
L4751 15125
" />
<path d="M4751 14306
L4751 14029
" />
<path d="M4735 15384
L4735 15125
" />
<path d="M4735 14306
L4735 14046
" />
<path d="M4720 15366
L4720 15125
" />
<path d="M4720 14306
L4720 14064
" />
<path d="M4704 15347
L4704 15125
" />
<path d="M4704 14306
L4704 14083
" />
<path d="M4688 15327
L4688 15125
" />
<path d="M4688 14306
L4688 14103
" />
<path d="M4672 15306
L4672 15125
" />
<path d="M4672 14306
L4672 14125
" />
<path d="M4657 15283
L4657 15125
" />
<path d="M4657 14306
L4657 14147
" />
<path d="M4641 15260
L4641 15125
" />
<path d="M4641 14306
L4641 14171
" />
<path d="M4625 15234
L4625 15125
" />
<path d="M4625 14306
L4625 14196
" />
<path d="M4609 15208
L4609 15125
" />
<path d="M4609 14306
L4609 14223
" />
<path d="M4594 15179
L4594 14251
" />
<path d="M4578 15147
L4578 14283
" />
<path d="M4562 15113
L4562 14317
" />
<path d="M4546 15075
L4546 14355
" />
<path d="M4531 15032
L4531 14398
" />
<path d="M4515 14982
L4515 14449
" />
<path d="M4499 14919
L4499 14511
" />
<path d="M4483 14827
L4483 14603
" />
<path d="M6612 15296
L6415 15296
" />
<path d="M6513 15394
L6513 15197
" />
<circle cx="13507.9" cy="17715.6" r="1031.5" /> 
<path d="M13507 18731
L13507 16699
" />
<path d="M13492 18731
L13492 16699
" />
<path d="M13476 18730
L13476 16700
" />
<path d="M13460 18730
L13460 16700
" />
<path d="M13444 18729
L13444 16701
" />
<path d="M13429 18728
L13429 16702
" />
<path d="M13413 18726
L13413 18125
" />
<path d="M13413 17306
L13413 16704
" />
<path d="M13397 18725
L13397 18125
" />
<path d="M13397 17306
L13397 16705
" />
<path d="M13381 18723
L13381 18125
" />
<path d="M13381 17306
L13381 16707
" />
<path d="M13366 18721
L13366 18125
" />
<path d="M13366 17306
L13366 16709
" />
<path d="M13350 18719
L13350 18125
" />
<path d="M13350 17306
L13350 16711
" />
<path d="M13334 18716
L13334 18125
" />
<path d="M13334 17306
L13334 16714
" />
<path d="M13318 18713
L13318 18125
" />
<path d="M13318 17306
L13318 16717
" />
<path d="M13303 18710
L13303 18125
" />
<path d="M13303 17306
L13303 16720
" />
<path d="M13287 18707
L13287 18125
" />
<path d="M13287 17306
L13287 16723
" />
<path d="M13271 18704
L13271 18125
" />
<path d="M13271 17306
L13271 16726
" />
<path d="M13255 18700
L13255 18125
" />
<path d="M13255 17306
L13255 16730
" />
<path d="M13240 18696
L13240 18125
" />
<path d="M13240 17306
L13240 16734
" />
<path d="M13224 18691
L13224 18125
" />
<path d="M13224 17306
L13224 16739
" />
<path d="M13208 18687
L13208 18125
" />
<path d="M13208 17306
L13208 16743
" />
<path d="M13192 18682
L13192 18125
" />
<path d="M13192 17306
L13192 16749
" />
<path d="M13176 18676
L13176 18125
" />
<path d="M13176 17306
L13176 16754
" />
<path d="M13161 18671
L13161 18125
" />
<path d="M13161 17306
L13161 16759
" />
<path d="M13145 18665
L13145 18125
" />
<path d="M13145 17306
L13145 16765
" />
<path d="M13129 18659
L13129 18125
" />
<path d="M13129 17306
L13129 16771
" />
<path d="M13113 18653
L13113 18125
" />
<path d="M13113 17306
L13113 16777
" />
<path d="M13098 18646
L13098 18125
" />
<path d="M13098 17306
L13098 16784
" />
<path d="M13082 18639
L13082 18125
" />
<path d="M13082 17306
L13082 16791
" />
<path d="M13066 18632
L13066 18125
" />
<path d="M13066 17306
L13066 16798
" />
<path d="M13050 18625
L13050 18125
" />
<path d="M13050 17306
L13050 16806
" />
<path d="M13035 18617
L13035 18125
" />
<path d="M13035 17306
L13035 16813
" />
<path d="M13019 18608
L13019 18125
" />
<path d="M13019 17306
L13019 16822
" />
<path d="M13003 18600
L13003 18125
" />
<path d="M13003 17306
L13003 16830
" />
<path d="M12987 18591
L12987 18125
" />
<path d="M12987 17306
L12987 16839
" />
<path d="M12972 18581
L12972 18125
" />
<path d="M12972 17306
L12972 16849
" />
<path d="M12956 18571
L12956 18125
" />
<path d="M12956 17306
L12956 16859
" />
<path d="M12940 18561
L12940 18125
" />
<path d="M12940 17306
L12940 16869
" />
<path d="M12924 18550
L12924 18125
" />
<path d="M12924 17306
L12924 16880
" />
<path d="M12909 18540
L12909 18125
" />
<path d="M12909 17306
L12909 16890
" />
<path d="M12893 18528
L12893 18125
" />
<path d="M12893 17306
L12893 16902
" />
<path d="M12877 18516
L12877 18125
" />
<path d="M12877 17306
L12877 16914
" />
<path d="M12861 18504
L12861 18125
" />
<path d="M12861 17306
L12861 16926
" />
<path d="M12846 18491
L12846 18125
" />
<path d="M12846 17306
L12846 16939
" />
<path d="M12830 18478
L12830 18125
" />
<path d="M12830 17306
L12830 16952
" />
<path d="M12814 18463
L12814 18125
" />
<path d="M12814 17306
L12814 16967
" />
<path d="M12798 18449
L12798 18125
" />
<path d="M12798 17306
L12798 16981
" />
<path d="M12783 18434
L12783 18125
" />
<path d="M12783 17306
L12783 16996
" />
<path d="M12767 18418
L12767 18125
" />
<path d="M12767 17306
L12767 17012
" />
<path d="M12751 18401
L12751 18125
" />
<path d="M12751 17306
L12751 17029
" />
<path d="M12735 18384
L12735 18125
" />
<path d="M12735 17306
L12735 17046
" />
<path d="M12720 18366
L12720 18125
" />
<path d="M12720 17306
L12720 17064
" />
<path d="M12704 18347
L12704 18125
" />
<path d="M12704 17306
L12704 17083
" />
<path d="M12688 18327
L12688 18125
" />
<path d="M12688 17306
L12688 17103
" />
<path d="M12672 18306
L12672 18125
" />
<path d="M12672 17306
L12672 17125
" />
<path d="M12657 18283
L12657 18125
" />
<path d="M12657 17306
L12657 17147
" />
<path d="M12641 18260
L12641 18125
" />
<path d="M12641 17306
L12641 17171
" />
<path d="M12625 18234
L12625 18125
" />
<path d="M12625 17306
L12625 17196
" />
<path d="M12609 18208
L12609 18125
" />
<path d="M12609 17306
L12609 17223
" />
<path d="M12594 18179
L12594 17251
" />
<path d="M12578 18147
L12578 17283
" />
<path d="M12562 18113
L12562 17317
" />
<path d="M12546 18075
L12546 17355
" />
<path d="M12531 18032
L12531 17398
" />
<path d="M12515 17982
L12515 17449
" />
<path d="M12499 17919
L12499 17511
" />
<path d="M12483 17827
L12483 17603
" />
<path d="M14612 18296
L14415 18296
" />
<path d="M14513 18394
L14513 18197
" />
<circle cx="13492.1" cy="14715.6" r="1031.5" /> 
<path d="M13492 13699
L13492 15731
" />
<path d="M13507 13699
L13507 15731
" />
<path d="M13523 13700
L13523 15730
" />
<path d="M13539 13700
L13539 15730
" />
<path d="M13555 13701
L13555 15729
" />
<path d="M13570 13702
L13570 15728
" />
<path d="M13586 13704
L13586 14306
" />
<path d="M13586 15125
L13586 15726
" />
<path d="M13602 13705
L13602 14306
" />
<path d="M13602 15125
L13602 15725
" />
<path d="M13618 13707
L13618 14306
" />
<path d="M13618 15125
L13618 15723
" />
<path d="M13633 13709
L13633 14306
" />
<path d="M13633 15125
L13633 15721
" />
<path d="M13649 13711
L13649 14306
" />
<path d="M13649 15125
L13649 15719
" />
<path d="M13665 13714
L13665 14306
" />
<path d="M13665 15125
L13665 15716
" />
<path d="M13681 13717
L13681 14306
" />
<path d="M13681 15125
L13681 15713
" />
<path d="M13696 13720
L13696 14306
" />
<path d="M13696 15125
L13696 15710
" />
<path d="M13712 13723
L13712 14306
" />
<path d="M13712 15125
L13712 15707
" />
<path d="M13728 13726
L13728 14306
" />
<path d="M13728 15125
L13728 15704
" />
<path d="M13744 13730
L13744 14306
" />
<path d="M13744 15125
L13744 15700
" />
<path d="M13759 13734
L13759 14306
" />
<path d="M13759 15125
L13759 15696
" />
<path d="M13775 13739
L13775 14306
" />
<path d="M13775 15125
L13775 15691
" />
<path d="M13791 13743
L13791 14306
" />
<path d="M13791 15125
L13791 15687
" />
<path d="M13807 13749
L13807 14306
" />
<path d="M13807 15125
L13807 15682
" />
<path d="M13823 13754
L13823 14306
" />
<path d="M13823 15125
L13823 15676
" />
<path d="M13838 13759
L13838 14306
" />
<path d="M13838 15125
L13838 15671
" />
<path d="M13854 13765
L13854 14306
" />
<path d="M13854 15125
L13854 15665
" />
<path d="M13870 13771
L13870 14306
" />
<path d="M13870 15125
L13870 15659
" />
<path d="M13886 13777
L13886 14306
" />
<path d="M13886 15125
L13886 15653
" />
<path d="M13901 13784
L13901 14306
" />
<path d="M13901 15125
L13901 15646
" />
<path d="M13917 13791
L13917 14306
" />
<path d="M13917 15125
L13917 15639
" />
<path d="M13933 13798
L13933 14306
" />
<path d="M13933 15125
L13933 15632
" />
<path d="M13949 13806
L13949 14306
" />
<path d="M13949 15125
L13949 15625
" />
<path d="M13964 13813
L13964 14306
" />
<path d="M13964 15125
L13964 15617
" />
<path d="M13980 13822
L13980 14306
" />
<path d="M13980 15125
L13980 15608
" />
<path d="M13996 13830
L13996 14306
" />
<path d="M13996 15125
L13996 15600
" />
<path d="M14012 13839
L14012 14306
" />
<path d="M14012 15125
L14012 15591
" />
<path d="M14027 13849
L14027 14306
" />
<path d="M14027 15125
L14027 15581
" />
<path d="M14043 13859
L14043 14306
" />
<path d="M14043 15125
L14043 15571
" />
<path d="M14059 13869
L14059 14306
" />
<path d="M14059 15125
L14059 15561
" />
<path d="M14075 13880
L14075 14306
" />
<path d="M14075 15125
L14075 15550
" />
<path d="M14090 13890
L14090 14306
" />
<path d="M14090 15125
L14090 15540
" />
<path d="M14106 13902
L14106 14306
" />
<path d="M14106 15125
L14106 15528
" />
<path d="M14122 13914
L14122 14306
" />
<path d="M14122 15125
L14122 15516
" />
<path d="M14138 13926
L14138 14306
" />
<path d="M14138 15125
L14138 15504
" />
<path d="M14153 13939
L14153 14306
" />
<path d="M14153 15125
L14153 15491
" />
<path d="M14169 13952
L14169 14306
" />
<path d="M14169 15125
L14169 15478
" />
<path d="M14185 13967
L14185 14306
" />
<path d="M14185 15125
L14185 15463
" />
<path d="M14201 13981
L14201 14306
" />
<path d="M14201 15125
L14201 15449
" />
<path d="M14216 13996
L14216 14306
" />
<path d="M14216 15125
L14216 15434
" />
<path d="M14232 14012
L14232 14306
" />
<path d="M14232 15125
L14232 15418
" />
<path d="M14248 14029
L14248 14306
" />
<path d="M14248 15125
L14248 15401
" />
<path d="M14264 14046
L14264 14306
" />
<path d="M14264 15125
L14264 15384
" />
<path d="M14279 14064
L14279 14306
" />
<path d="M14279 15125
L14279 15366
" />
<path d="M14295 14083
L14295 14306
" />
<path d="M14295 15125
L14295 15347
" />
<path d="M14311 14103
L14311 14306
" />
<path d="M14311 15125
L14311 15327
" />
<path d="M14327 14125
L14327 14306
" />
<path d="M14327 15125
L14327 15306
" />
<path d="M14342 14147
L14342 14306
" />
<path d="M14342 15125
L14342 15283
" />
<path d="M14358 14171
L14358 14306
" />
<path d="M14358 15125
L14358 15260
" />
<path d="M14374 14196
L14374 14306
" />
<path d="M14374 15125
L14374 15234
" />
<path d="M14390 14223
L14390 14306
" />
<path d="M14390 15125
L14390 15208
" />
<path d="M14405 14251
L14405 15179
" />
<path d="M14421 14283
L14421 15147
" />
<path d="M14437 14317
L14437 15113
" />
<path d="M14453 14355
L14453 15075
" />
<path d="M14468 14398
L14468 15032
" />
<path d="M14484 14449
L14484 14982
" />
<path d="M14500 14511
L14500 14919
" />
<path d="M14516 14603
L14516 14827
" />
<path d="M12387 14134
L12584 14134
" />
<path d="M12486 14036
L12486 14233
" />
<path d="M10952 9176
L13015 9176
" />
<path d="M10952 10254
L13015 10254
" />
<path d="M10952 9176
L10952 9300
" />
<path d="M10952 10130
L10952 10254
" />
<path d="M13015 9176
L13015 9300
" />
<path d="M13015 10130
L13015 10254
" />
<path d="M20952 19176
L23015 19176
" />
<path d="M20952 20254
L23015 20254
" />
<path d="M20952 19176
L20952 19300
" />
<path d="M20952 20130
L20952 20254
" />
<path d="M23015 19176
L23015 19300
" />
<path d="M23015 20130
L23015 20254
" />
<path d="M20984 17676
L23047 17676
" />
<path d="M20984 18754
L23047 18754
" />
<path d="M20984 17676
L20984 17800
" />
<path d="M20984 18630
L20984 18754
" />
<path d="M23047 17676
L23047 17800
" />
<path d="M23047 18630
L23047 18754
" />
<path d="M984 9176
L3047 9176
" />
<path d="M984 10254
L3047 10254
" />
<path d="M984 9176
L984 9300
" />
<path d="M984 10130
L984 10254
" />
<path d="M3047 9176
L3047 9300
" />
<path d="M3047 10130
L3047 10254
" />
<path d="M4047 3254
L1984 3254
" />
<path d="M4047 2176
L1984 2176
" />
<path d="M4047 3254
L4047 3130
" />
<path d="M4047 2300
L4047 2176
" />
<path d="M1984 3254
L1984 3130
" />
<path d="M1984 2300
L1984 2176
" />
</g>
<g style="fill:#000000; fill-opacity:0.0; 
stroke:#000000; stroke-width:59.0551; stroke-opacity:1; 
stroke-linecap:round; stroke-linejoin:round;">
<text x="12000" y="1912.4"
textLength="768.654" font-size="524.934" lengthAdjust="spacingAndGlyphs"
text-anchor="middle" opacity="0">C5</text>
<path d="M11934 1856
L11915 1874
L11859 1893
L11821 1893
L11765 1874
L11728 1837
L11709 1799
L11690 1724
L11690 1668
L11709 1593
L11728 1556
L11765 1518
L11821 1499
L11859 1499
L11915 1518
L11934 1537
" />
<path d="M12290 1499
L12103 1499
L12084 1687
L12103 1668
L12140 1649
L12234 1649
L12271 1668
L12290 1687
L12309 1724
L12309 1818
L12290 1856
L12271 1874
L12234 1893
L12140 1893
L12103 1874
L12084 1856
" />
<g transform="rotate(-90 500 19715.6)">
<text x="500" y="19912.4"
textLength="751.687" font-size="524.934" lengthAdjust="spacingAndGlyphs"
text-anchor="middle" opacity="0">J1</text>
</g>
<path d="M284 19846
L565 19846
L621 19865
L659 19903
L678 19959
L678 19996
" />
<path d="M678 19453
L678 19678
" />
<path d="M678 19565
L284 19565
L340 19603
L378 19640
L396 19678
" />
<text x="36500" y="3412.4"
textLength="1126.64" font-size="524.934" lengthAdjust="spacingAndGlyphs"
text-anchor="middle" opacity="0">J31</text>
<path d="M36181 2999
L36181 3281
L36162 3337
L36125 3374
L36068 3393
L36031 3393
" />
<path d="M36331 2999
L36574 2999
L36443 3149
L36500 3149
L36537 3168
L36556 3187
L36574 3224
L36574 3318
L36556 3356
L36537 3374
L36500 3393
L36387 3393
L36350 3374
L36331 3356
" />
<path d="M36949 3393
L36724 3393
" />
<path d="M36837 3393
L36837 2999
L36799 3056
L36762 3093
L36724 3112
" />
<text x="38000" y="5912.4"
textLength="1126.64" font-size="524.934" lengthAdjust="spacingAndGlyphs"
text-anchor="middle" opacity="0">J30</text>
<path d="M37681 5499
L37681 5781
L37662 5837
L37625 5874
L37568 5893
L37531 5893
" />
<path d="M37831 5499
L38074 5499
L37943 5649
L38000 5649
L38037 5668
L38056 5687
L38074 5724
L38074 5818
L38056 5856
L38037 5874
L38000 5893
L37887 5893
L37850 5874
L37831 5856
" />
<path d="M38318 5499
L38356 5499
L38393 5518
L38412 5537
L38431 5574
L38449 5649
L38449 5743
L38431 5818
L38412 5856
L38393 5874
L38356 5893
L38318 5893
L38281 5874
L38262 5856
L38243 5818
L38224 5743
L38224 5649
L38243 5574
L38262 5537
L38281 5518
L38318 5499
" />
<text x="38000" y="20680.1"
textLength="1126.64" font-size="524.934" lengthAdjust="spacingAndGlyphs"
text-anchor="middle" opacity="0">J29</text>
<path d="M37681 20267
L37681 20548
L37662 20605
L37625 20642
L37568 20661
L37531 20661
" />
<path d="M37850 20305
L37868 20286
L37906 20267
L38000 20267
L38037 20286
L38056 20305
L38074 20342
L38074 20380
L38056 20436
L37831 20661
L38074 20661
" />
<path d="M38262 20661
L38337 20661
L38374 20642
L38393 20623
L38431 20567
L38449 20492
L38449 20342
L38431 20305
L38412 20286
L38374 20267
L38299 20267
L38262 20286
L38243 20305
L38224 20342
L38224 20436
L38243 20473
L38262 20492
L38299 20511
L38374 20511
L38412 20492
L38431 20473
L38449 20436
" />
<text x="39500" y="6412.4"
textLength="1126.64" font-size="524.934" lengthAdjust="spacingAndGlyphs"
text-anchor="middle" opacity="0">J28</text>
<path d="M39181 5999
L39181 6281
L39162 6337
L39125 6374
L39068 6393
L39031 6393
" />
<path d="M39350 6037
L39368 6018
L39406 5999
L39500 5999
L39537 6018
L39556 6037
L39574 6074
L39574 6112
L39556 6168
L39331 6393
L39574 6393
" />
<path d="M39799 6168
L39762 6149
L39743 6131
L39724 6093
L39724 6074
L39743 6037
L39762 6018
L39799 5999
L39874 5999
L39912 6018
L39931 6037
L39949 6074
L39949 6093
L39931 6131
L39912 6149
L39874 6168
L39799 6168
L39762 6187
L39743 6206
L39724 6243
L39724 6318
L39743 6356
L39762 6374
L39799 6393
L39874 6393
L39912 6374
L39931 6356
L39949 6318
L39949 6243
L39931 6206
L39912 6187
L39874 6168
" />
<text x="34500" y="17995.1"
textLength="1126.64" font-size="524.934" lengthAdjust="spacingAndGlyphs"
text-anchor="middle" opacity="0">J27</text>
<path d="M34181 17582
L34181 17863
L34162 17920
L34125 17957
L34068 17976
L34031 17976
" />
<path d="M34350 17620
L34368 17601
L34406 17582
L34500 17582
L34537 17601
L34556 17620
L34574 17657
L34574 17695
L34556 17751
L34331 17976
L34574 17976
" />
<path d="M34706 17582
L34968 17582
L34799 17976
" />
<text x="38000" y="6412.4"
textLength="1126.64" font-size="524.934" lengthAdjust="spacingAndGlyphs"
text-anchor="middle" opacity="0">J26</text>
<path d="M37681 5999
L37681 6281
L37662 6337
L37625 6374
L37568 6393
L37531 6393
" />
<path d="M37850 6037
L37868 6018
L37906 5999
L38000 5999
L38037 6018
L38056 6037
L38074 6074
L38074 6112
L38056 6168
L37831 6393
L38074 6393
" />
<path d="M38412 5999
L38337 5999
L38299 6018
L38281 6037
L38243 6093
L38224 6168
L38224 6318
L38243 6356
L38262 6374
L38299 6393
L38374 6393
L38412 6374
L38431 6356
L38449 6318
L38449 6224
L38431 6187
L38412 6168
L38374 6149
L38299 6149
L38262 6168
L38243 6187
L38224 6224
" />
<text x="34500" y="495.079"
textLength="1126.64" font-size="524.934" lengthAdjust="spacingAndGlyphs"
text-anchor="middle" opacity="0">J25</text>
<path d="M34181 82
L34181 363
L34162 420
L34125 457
L34068 476
L34031 476
" />
<path d="M34350 120
L34368 101
L34406 82
L34500 82
L34537 101
L34556 120
L34574 157
L34574 195
L34556 251
L34331 476
L34574 476
" />
<path d="M34931 82
L34743 82
L34724 270
L34743 251
L34781 232
L34874 232
L34912 251
L34931 270
L34949 307
L34949 401
L34931 438
L34912 457
L34874 476
L34781 476
L34743 457
L34724 438
" />
<text x="37000" y="12180.1"
textLength="1126.64" font-size="524.934" lengthAdjust="spacingAndGlyphs"
text-anchor="middle" opacity="0">J24</text>
<path d="M36681 11767
L36681 12048
L36662 12105
L36625 12142
L36568 12161
L36531 12161
" />
<path d="M36850 11805
L36868 11786
L36906 11767
L37000 11767
L37037 11786
L37056 11805
L37074 11842
L37074 11880
L37056 11936
L36831 12161
L37074 12161
" />
<path d="M37412 11898
L37412 12161
" />
<path d="M37318 11748
L37224 12030
L37468 12030
" />
<text x="40000" y="9180.12"
textLength="1126.64" font-size="524.934" lengthAdjust="spacingAndGlyphs"
text-anchor="middle" opacity="0">J23</text>
<path d="M39681 8767
L39681 9048
L39662 9105
L39625 9142
L39568 9161
L39531 9161
" />
<path d="M39850 8805
L39868 8786
L39906 8767
L40000 8767
L40037 8786
L40056 8805
L40074 8842
L40074 8880
L40056 8936
L39831 9161
L40074 9161
" />
<path d="M40206 8767
L40449 8767
L40318 8917
L40374 8917
L40412 8936
L40431 8955
L40449 8992
L40449 9086
L40431 9123
L40412 9142
L40374 9161
L40262 9161
L40224 9142
L40206 9123
" />
<text x="40000" y="14680.1"
textLength="1126.64" font-size="524.934" lengthAdjust="spacingAndGlyphs"
text-anchor="middle" opacity="0">J22</text>
<path d="M39681 14267
L39681 14548
L39662 14605
L39625 14642
L39568 14661
L39531 14661
" />
<path d="M39850 14305
L39868 14286
L39906 14267
L40000 14267
L40037 14286
L40056 14305
L40074 14342
L40074 14380
L40056 14436
L39831 14661
L40074 14661
" />
<path d="M40224 14305
L40243 14286
L40281 14267
L40374 14267
L40412 14286
L40431 14305
L40449 14342
L40449 14380
L40431 14436
L40206 14661
L40449 14661
" />
<text x="37000" y="6662.4"
textLength="1126.64" font-size="524.934" lengthAdjust="spacingAndGlyphs"
text-anchor="middle" opacity="0">J21</text>
<path d="M36681 6249
L36681 6531
L36662 6587
L36625 6624
L36568 6643
L36531 6643
" />
<path d="M36850 6287
L36868 6268
L36906 6249
L37000 6249
L37037 6268
L37056 6287
L37074 6324
L37074 6362
L37056 6418
L36831 6643
L37074 6643
" />
<path d="M37449 6643
L37224 6643
" />
<path d="M37337 6643
L37337 6249
L37299 6306
L37262 6343
L37224 6362
" />
<text x="39500" y="5912.4"
textLength="1126.64" font-size="524.934" lengthAdjust="spacingAndGlyphs"
text-anchor="middle" opacity="0">J20</text>
<path d="M39181 5499
L39181 5781
L39162 5837
L39125 5874
L39068 5893
L39031 5893
" />
<path d="M39350 5537
L39368 5518
L39406 5499
L39500 5499
L39537 5518
L39556 5537
L39574 5574
L39574 5612
L39556 5668
L39331 5893
L39574 5893
" />
<path d="M39818 5499
L39856 5499
L39893 5518
L39912 5537
L39931 5574
L39949 5649
L39949 5743
L39931 5818
L39912 5856
L39893 5874
L39856 5893
L39818 5893
L39781 5874
L39762 5856
L39743 5818
L39724 5743
L39724 5649
L39743 5574
L39762 5537
L39781 5518
L39818 5499
" />
<text x="34500" y="10995.1"
textLength="1126.64" font-size="524.934" lengthAdjust="spacingAndGlyphs"
text-anchor="middle" opacity="0">J19</text>
<path d="M34181 10582
L34181 10863
L34162 10920
L34125 10957
L34068 10976
L34031 10976
" />
<path d="M34574 10976
L34350 10976
" />
<path d="M34462 10976
L34462 10582
L34425 10638
L34387 10676
L34350 10695
" />
<path d="M34762 10976
L34837 10976
L34874 10957
L34893 10938
L34931 10882
L34949 10807
L34949 10657
L34931 10620
L34912 10601
L34874 10582
L34799 10582
L34762 10601
L34743 10620
L34724 10657
L34724 10751
L34743 10788
L34762 10807
L34799 10826
L34874 10826
L34912 10807
L34931 10788
L34949 10751
" />
<text x="38000" y="2412.4"
textLength="1126.64" font-size="524.934" lengthAdjust="spacingAndGlyphs"
text-anchor="middle" opacity="0">J18</text>
<path d="M37681 1999
L37681 2281
L37662 2337
L37625 2374
L37568 2393
L37531 2393
" />
<path d="M38074 2393
L37850 2393
" />
<path d="M37962 2393
L37962 1999
L37925 2056
L37887 2093
L37850 2112
" />
<path d="M38299 2168
L38262 2149
L38243 2131
L38224 2093
L38224 2074
L38243 2037
L38262 2018
L38299 1999
L38374 1999
L38412 2018
L38431 2037
L38449 2074
L38449 2093
L38431 2131
L38412 2149
L38374 2168
L38299 2168
L38262 2187
L38243 2206
L38224 2243
L38224 2318
L38243 2356
L38262 2374
L38299 2393
L38374 2393
L38412 2374
L38431 2356
L38449 2318
L38449 2243
L38431 2206
L38412 2187
L38374 2168
" />
<text x="34500" y="7495.08"
textLength="1126.64" font-size="524.934" lengthAdjust="spacingAndGlyphs"
text-anchor="middle" opacity="0">J17</text>
<path d="M34181 7082
L34181 7363
L34162 7420
L34125 7457
L34068 7476
L34031 7476
" />
<path d="M34574 7476
L34350 7476
" />
<path d="M34462 7476
L34462 7082
L34425 7138
L34387 7176
L34350 7195
" />
<path d="M34706 7082
L34968 7082
L34799 7476
" />
<text x="37000" y="14680.1"
textLength="1126.64" font-size="524.934" lengthAdjust="spacingAndGlyphs"
text-anchor="middle" opacity="0">J16</text>
<path d="M36681 14267
L36681 14548
L36662 14605
L36625 14642
L36568 14661
L36531 14661
" />
<path d="M37074 14661
L36850 14661
" />
<path d="M36962 14661
L36962 14267
L36925 14323
L36887 14361
L36850 14380
" />
<path d="M37412 14267
L37337 14267
L37299 14286
L37281 14305
L37243 14361
L37224 14436
L37224 14586
L37243 14623
L37262 14642
L37299 14661
L37374 14661
L37412 14642
L37431 14623
L37449 14586
L37449 14492
L37431 14455
L37412 14436
L37374 14417
L37299 14417
L37262 14436
L37243 14455
L37224 14492
" />
<text x="39500" y="2412.4"
textLength="1126.64" font-size="524.934" lengthAdjust="spacingAndGlyphs"
text-anchor="middle" opacity="0">J15</text>
<path d="M39181 1999
L39181 2281
L39162 2337
L39125 2374
L39068 2393
L39031 2393
" />
<path d="M39574 2393
L39350 2393
" />
<path d="M39462 2393
L39462 1999
L39425 2056
L39387 2093
L39350 2112
" />
<path d="M39931 1999
L39743 1999
L39724 2187
L39743 2168
L39781 2149
L39874 2149
L39912 2168
L39931 2187
L39949 2224
L39949 2318
L39931 2356
L39912 2374
L39874 2393
L39781 2393
L39743 2374
L39724 2356
" />
<text x="40500" y="2180.12"
textLength="1126.64" font-size="524.934" lengthAdjust="spacingAndGlyphs"
text-anchor="middle" opacity="0">J14</text>
<path d="M40181 1767
L40181 2048
L40162 2105
L40125 2142
L40068 2161
L40031 2161
" />
<path d="M40574 2161
L40350 2161
" />
<path d="M40462 2161
L40462 1767
L40425 1823
L40387 1861
L40350 1880
" />
<path d="M40912 1898
L40912 2161
" />
<path d="M40818 1748
L40724 2030
L40968 2030
" />
<text x="34500" y="14495.1"
textLength="1126.64" font-size="524.934" lengthAdjust="spacingAndGlyphs"
text-anchor="middle" opacity="0">J13</text>
<path d="M34181 14082
L34181 14363
L34162 14420
L34125 14457
L34068 14476
L34031 14476
" />
<path d="M34574 14476
L34350 14476
" />
<path d="M34462 14476
L34462 14082
L34425 14138
L34387 14176
L34350 14195
" />
<path d="M34706 14082
L34949 14082
L34818 14232
L34874 14232
L34912 14251
L34931 14270
L34949 14307
L34949 14401
L34931 14438
L34912 14457
L34874 14476
L34762 14476
L34724 14457
L34706 14438
" />
<text x="36500" y="6180.12"
textLength="1126.64" font-size="524.934" lengthAdjust="spacingAndGlyphs"
text-anchor="middle" opacity="0">J12</text>
<path d="M36181 5767
L36181 6048
L36162 6105
L36125 6142
L36068 6161
L36031 6161
" />
<path d="M36574 6161
L36350 6161
" />
<path d="M36462 6161
L36462 5767
L36425 5823
L36387 5861
L36350 5880
" />
<path d="M36724 5805
L36743 5786
L36781 5767
L36874 5767
L36912 5786
L36931 5805
L36949 5842
L36949 5880
L36931 5936
L36706 6161
L36949 6161
" />
<text x="34500" y="3995.08"
textLength="1126.64" font-size="524.934" lengthAdjust="spacingAndGlyphs"
text-anchor="middle" opacity="0">J11</text>
<path d="M34181 3582
L34181 3863
L34162 3920
L34125 3957
L34068 3976
L34031 3976
" />
<path d="M34574 3976
L34350 3976
" />
<path d="M34462 3976
L34462 3582
L34425 3638
L34387 3676
L34350 3695
" />
<path d="M34949 3976
L34724 3976
" />
<path d="M34837 3976
L34837 3582
L34799 3638
L34762 3676
L34724 3695
" />
<text x="37000" y="9180.12"
textLength="1126.64" font-size="524.934" lengthAdjust="spacingAndGlyphs"
text-anchor="middle" opacity="0">J10</text>
<path d="M36681 8767
L36681 9048
L36662 9105
L36625 9142
L36568 9161
L36531 9161
" />
<path d="M37074 9161
L36850 9161
" />
<path d="M36962 9161
L36962 8767
L36925 8823
L36887 8861
L36850 8880
" />
<path d="M37318 8767
L37356 8767
L37393 8786
L37412 8805
L37431 8842
L37449 8917
L37449 9011
L37431 9086
L37412 9123
L37393 9142
L37356 9161
L37318 9161
L37281 9142
L37262 9123
L37243 9086
L37224 9011
L37224 8917
L37243 8842
L37262 8805
L37281 8786
L37318 8767
" />
<text x="37000" y="20680.1"
textLength="751.687" font-size="524.934" lengthAdjust="spacingAndGlyphs"
text-anchor="middle" opacity="0">J9</text>
<path d="M36868 20267
L36868 20548
L36850 20605
L36812 20642
L36756 20661
L36718 20661
" />
<path d="M37074 20661
L37149 20661
L37187 20642
L37206 20623
L37243 20567
L37262 20492
L37262 20342
L37243 20305
L37224 20286
L37187 20267
L37112 20267
L37074 20286
L37056 20305
L37037 20342
L37037 20436
L37056 20473
L37074 20492
L37112 20511
L37187 20511
L37224 20492
L37243 20473
L37262 20436
" />
<text x="37000" y="17680.1"
textLength="751.687" font-size="524.934" lengthAdjust="spacingAndGlyphs"
text-anchor="middle" opacity="0">J8</text>
<path d="M36868 17267
L36868 17548
L36850 17605
L36812 17642
L36756 17661
L36718 17661
" />
<path d="M37112 17436
L37074 17417
L37056 17398
L37037 17361
L37037 17342
L37056 17305
L37074 17286
L37112 17267
L37187 17267
L37224 17286
L37243 17305
L37262 17342
L37262 17361
L37243 17398
L37224 17417
L37187 17436
L37112 17436
L37074 17455
L37056 17473
L37037 17511
L37037 17586
L37056 17623
L37074 17642
L37112 17661
L37187 17661
L37224 17642
L37243 17623
L37262 17586
L37262 17511
L37243 17473
L37224 17455
L37187 17436
" />
<g transform="rotate(-90 20500 16615.6)">
<text x="20500" y="16812.4"
textLength="1201.63" font-size="524.934" lengthAdjust="spacingAndGlyphs"
text-anchor="middle" opacity="0">Co1</text>
</g>
<path d="M20640 16859
L20659 16878
L20678 16934
L20678 16971
L20659 17027
L20621 17065
L20584 17084
L20509 17102
L20453 17102
L20378 17084
L20340 17065
L20303 17027
L20284 16971
L20284 16934
L20303 16878
L20321 16859
" />
<path d="M20678 16634
L20659 16671
L20640 16690
L20603 16709
L20490 16709
L20453 16690
L20434 16671
L20415 16634
L20415 16578
L20434 16540
L20453 16521
L20490 16503
L20603 16503
L20640 16521
L20659 16540
L20678 16578
L20678 16634
" />
<path d="M20678 16128
L20678 16353
" />
<path d="M20678 16240
L20284 16240
L20340 16278
L20378 16315
L20396 16353
" />
<text x="19100" y="15012.4"
textLength="1220.38" font-size="524.934" lengthAdjust="spacingAndGlyphs"
text-anchor="middle" opacity="0">Qa1</text>
<path d="M18884 15031
L18846 15012
L18809 14974
L18753 14918
L18715 14899
L18678 14899
" />
<path d="M18696 14993
L18659 14974
L18621 14937
L18603 14862
L18603 14731
L18621 14656
L18659 14618
L18696 14599
L18771 14599
L18809 14618
L18846 14656
L18865 14731
L18865 14862
L18846 14937
L18809 14974
L18771 14993
L18696 14993
" />
<path d="M19203 14993
L19203 14787
L19184 14749
L19146 14731
L19071 14731
L19034 14749
" />
<path d="M19203 14974
L19165 14993
L19071 14993
L19034 14974
L19015 14937
L19015 14899
L19034 14862
L19071 14843
L19165 14843
L19203 14824
" />
<path d="M19596 14993
L19371 14993
" />
<path d="M19484 14993
L19484 14599
L19446 14656
L19409 14693
L19371 14712
" />
<text x="26113.4" y="16046.3"
textLength="864.173" font-size="524.934" lengthAdjust="spacingAndGlyphs"
text-anchor="middle" opacity="0">U4</text>
<path d="M25813 15633
L25813 15952
L25832 15990
L25850 16008
L25888 16027
L25963 16027
L26000 16008
L26019 15990
L26038 15952
L26038 15633
" />
<path d="M26394 15765
L26394 16027
" />
<path d="M26300 15615
L26207 15896
L26450 15896
" />
<text x="22500" y="3912.4"
textLength="864.173" font-size="524.934" lengthAdjust="spacingAndGlyphs"
text-anchor="middle" opacity="0">U3</text>
<path d="M22200 3499
L22200 3818
L22218 3856
L22237 3874
L22275 3893
L22350 3893
L22387 3874
L22406 3856
L22425 3818
L22425 3499
" />
<path d="M22574 3499
L22818 3499
L22687 3649
L22743 3649
L22781 3668
L22799 3687
L22818 3724
L22818 3818
L22799 3856
L22781 3874
L22743 3893
L22631 3893
L22593 3874
L22574 3856
" />
<text x="12500" y="3912.4"
textLength="864.173" font-size="524.934" lengthAdjust="spacingAndGlyphs"
text-anchor="middle" opacity="0">U2</text>
<path d="M12200 3499
L12200 3818
L12218 3856
L12237 3874
L12275 3893
L12350 3893
L12387 3874
L12406 3856
L12425 3818
L12425 3499
" />
<path d="M12593 3537
L12612 3518
L12649 3499
L12743 3499
L12781 3518
L12799 3537
L12818 3574
L12818 3612
L12799 3668
L12574 3893
L12818 3893
" />
<text x="2500" y="3912.4"
textLength="864.173" font-size="524.934" lengthAdjust="spacingAndGlyphs"
text-anchor="middle" opacity="0">U1</text>
<path d="M2200 3499
L2200 3818
L2218 3856
L2237 3874
L2275 3893
L2350 3893
L2387 3874
L2406 3856
L2425 3818
L2425 3499
" />
<path d="M2818 3893
L2593 3893
" />
<path d="M2706 3893
L2706 3499
L2668 3556
L2631 3593
L2593 3612
" />
<g transform="rotate(-90 29700 12115.6)">
<text x="29700" y="12312.4"
textLength="1220.38" font-size="524.934" lengthAdjust="spacingAndGlyphs"
text-anchor="middle" opacity="0">R39</text>
</g>
<path d="M29878 12368
L29690 12499
" />
<path d="M29878 12593
L29484 12593
L29484 12443
L29503 12406
L29521 12387
L29559 12368
L29615 12368
L29653 12387
L29671 12406
L29690 12443
L29690 12593
" />
<path d="M29484 12237
L29484 11993
L29634 12124
L29634 12068
L29653 12031
L29671 12012
L29709 11993
L29803 11993
L29840 12012
L29859 12031
L29878 12068
L29878 12181
L29859 12218
L29840 12237
" />
<path d="M29878 11806
L29878 11731
L29859 11693
L29840 11674
L29784 11637
L29709 11618
L29559 11618
L29521 11637
L29503 11656
L29484 11693
L29484 11768
L29503 11806
L29521 11824
L29559 11843
L29653 11843
L29690 11824
L29709 11806
L29728 11768
L29728 11693
L29709 11656
L29690 11637
L29653 11618
" />
<g transform="rotate(-90 29750 19215.6)">
<text x="29750" y="19412.4"
textLength="1220.38" font-size="524.934" lengthAdjust="spacingAndGlyphs"
text-anchor="middle" opacity="0">R38</text>
</g>
<path d="M29928 19468
L29740 19599
" />
<path d="M29928 19693
L29534 19693
L29534 19543
L29553 19506
L29571 19487
L29609 19468
L29665 19468
L29703 19487
L29721 19506
L29740 19543
L29740 19693
" />
<path d="M29534 19337
L29534 19093
L29684 19224
L29684 19168
L29703 19131
L29721 19112
L29759 19093
L29853 19093
L29890 19112
L29909 19131
L29928 19168
L29928 19281
L29909 19318
L29890 19337
" />
<path d="M29703 18868
L29684 18906
L29665 18924
L29628 18943
L29609 18943
L29571 18924
L29553 18906
L29534 18868
L29534 18793
L29553 18756
L29571 18737
L29609 18718
L29628 18718
L29665 18737
L29684 18756
L29703 18793
L29703 18868
L29721 18906
L29740 18924
L29778 18943
L29853 18943
L29890 18924
L29909 18906
L29928 18868
L29928 18793
L29909 18756
L29890 18737
L29853 18718
L29778 18718
L29740 18737
L29721 18756
L29703 18793
" />
<g transform="rotate(-90 29700 15515.4)">
<text x="29700" y="15712.2"
textLength="1220.38" font-size="524.934" lengthAdjust="spacingAndGlyphs"
text-anchor="middle" opacity="0">R37</text>
</g>
<path d="M29878 15768
L29690 15899
" />
<path d="M29878 15993
L29484 15993
L29484 15843
L29503 15805
L29521 15787
L29559 15768
L29615 15768
L29653 15787
L29671 15805
L29690 15843
L29690 15993
" />
<path d="M29484 15637
L29484 15393
L29634 15524
L29634 15468
L29653 15430
L29671 15412
L29709 15393
L29803 15393
L29840 15412
L29859 15430
L29878 15468
L29878 15580
L29859 15618
L29840 15637
" />
<path d="M29484 15262
L29484 14999
L29878 15168
" />
<g transform="rotate(-90 17500 19715.6)">
<text x="17500" y="19912.4"
textLength="1220.38" font-size="524.934" lengthAdjust="spacingAndGlyphs"
text-anchor="middle" opacity="0">R36</text>
</g>
<path d="M17678 19968
L17490 20099
" />
<path d="M17678 20193
L17284 20193
L17284 20043
L17303 20006
L17321 19987
L17359 19968
L17415 19968
L17453 19987
L17471 20006
L17490 20043
L17490 20193
" />
<path d="M17284 19837
L17284 19593
L17434 19724
L17434 19668
L17453 19631
L17471 19612
L17509 19593
L17603 19593
L17640 19612
L17659 19631
L17678 19668
L17678 19781
L17659 19818
L17640 19837
" />
<path d="M17284 19256
L17284 19331
L17303 19368
L17321 19387
L17378 19424
L17453 19443
L17603 19443
L17640 19424
L17659 19406
L17678 19368
L17678 19293
L17659 19256
L17640 19237
L17603 19218
L17509 19218
L17471 19237
L17453 19256
L17434 19293
L17434 19368
L17453 19406
L17471 19424
L17509 19443
" />
<text x="24000" y="13412.4"
textLength="1220.38" font-size="524.934" lengthAdjust="spacingAndGlyphs"
text-anchor="middle" opacity="0">R35</text>
<path d="M23746 13393
L23615 13206
" />
<path d="M23521 13393
L23521 12999
L23671 12999
L23709 13018
L23728 13037
L23746 13074
L23746 13131
L23728 13168
L23709 13187
L23671 13206
L23521 13206
" />
<path d="M23878 12999
L24121 12999
L23990 13149
L24046 13149
L24084 13168
L24103 13187
L24121 13224
L24121 13318
L24103 13356
L24084 13374
L24046 13393
L23934 13393
L23896 13374
L23878 13356
" />
<path d="M24478 12999
L24290 12999
L24271 13187
L24290 13168
L24328 13149
L24421 13149
L24459 13168
L24478 13187
L24496 13224
L24496 13318
L24478 13356
L24459 13374
L24421 13393
L24328 13393
L24290 13374
L24271 13356
" />
<g transform="rotate(-90 17500 18215.6)">
<text x="17500" y="18412.4"
textLength="1220.38" font-size="524.934" lengthAdjust="spacingAndGlyphs"
text-anchor="middle" opacity="0">R34</text>
</g>
<path d="M17678 18468
L17490 18599
" />
<path d="M17678 18693
L17284 18693
L17284 18543
L17303 18506
L17321 18487
L17359 18468
L17415 18468
L17453 18487
L17471 18506
L17490 18543
L17490 18693
" />
<path d="M17284 18337
L17284 18093
L17434 18224
L17434 18168
L17453 18131
L17471 18112
L17509 18093
L17603 18093
L17640 18112
L17659 18131
L17678 18168
L17678 18281
L17659 18318
L17640 18337
" />
<path d="M17415 17756
L17678 17756
" />
<path d="M17265 17849
L17546 17943
L17546 17699
" />
<text x="22500" y="13312.4"
textLength="1220.38" font-size="524.934" lengthAdjust="spacingAndGlyphs"
text-anchor="middle" opacity="0">R33</text>
<path d="M22246 13293
L22115 13106
" />
<path d="M22021 13293
L22021 12899
L22171 12899
L22209 12918
L22228 12937
L22246 12974
L22246 13031
L22228 13068
L22209 13087
L22171 13106
L22021 13106
" />
<path d="M22378 12899
L22621 12899
L22490 13049
L22546 13049
L22584 13068
L22603 13087
L22621 13124
L22621 13218
L22603 13256
L22584 13274
L22546 13293
L22434 13293
L22396 13274
L22378 13256
" />
<path d="M22753 12899
L22996 12899
L22865 13049
L22921 13049
L22959 13068
L22978 13087
L22996 13124
L22996 13218
L22978 13256
L22959 13274
L22921 13293
L22809 13293
L22771 13274
L22753 13256
" />
<g transform="rotate(-90 17500 16715.6)">
<text x="17500" y="16912.4"
textLength="1220.38" font-size="524.934" lengthAdjust="spacingAndGlyphs"
text-anchor="middle" opacity="0">R32</text>
</g>
<path d="M17678 16968
L17490 17099
" />
<path d="M17678 17193
L17284 17193
L17284 17043
L17303 17006
L17321 16987
L17359 16968
L17415 16968
L17453 16987
L17471 17006
L17490 17043
L17490 17193
" />
<path d="M17284 16837
L17284 16593
L17434 16724
L17434 16668
L17453 16631
L17471 16612
L17509 16593
L17603 16593
L17640 16612
L17659 16631
L17678 16668
L17678 16781
L17659 16818
L17640 16837
" />
<path d="M17321 16443
L17303 16424
L17284 16387
L17284 16293
L17303 16256
L17321 16237
L17359 16218
L17396 16218
L17453 16237
L17678 16462
L17678 16218
" />
<text x="21000" y="13312.4"
textLength="1220.38" font-size="524.934" lengthAdjust="spacingAndGlyphs"
text-anchor="middle" opacity="0">R31</text>
<path d="M20746 13293
L20615 13106
" />
<path d="M20521 13293
L20521 12899
L20671 12899
L20709 12918
L20728 12937
L20746 12974
L20746 13031
L20728 13068
L20709 13087
L20671 13106
L20521 13106
" />
<path d="M20878 12899
L21121 12899
L20990 13049
L21046 13049
L21084 13068
L21103 13087
L21121 13124
L21121 13218
L21103 13256
L21084 13274
L21046 13293
L20934 13293
L20896 13274
L20878 13256
" />
<path d="M21496 13293
L21271 13293
" />
<path d="M21384 13293
L21384 12899
L21346 12956
L21309 12993
L21271 13012
" />
<text x="5000" y="11128.9"
textLength="845.426" font-size="524.934" lengthAdjust="spacingAndGlyphs"
text-anchor="middle" opacity="0">R3</text>
<path d="M4934 11110
L4803 10922
" />
<path d="M4709 11110
L4709 10716
L4859 10716
L4896 10735
L4915 10753
L4934 10791
L4934 10847
L4915 10885
L4896 10903
L4859 10922
L4709 10922
" />
<path d="M5065 10716
L5309 10716
L5178 10866
L5234 10866
L5271 10885
L5290 10903
L5309 10941
L5309 11035
L5290 11072
L5271 11091
L5234 11110
L5121 11110
L5084 11091
L5065 11072
" />
<text x="16000" y="15912.4"
textLength="1220.38" font-size="524.934" lengthAdjust="spacingAndGlyphs"
text-anchor="middle" opacity="0">R29</text>
<path d="M15746 15893
L15615 15706
" />
<path d="M15521 15893
L15521 15499
L15671 15499
L15709 15518
L15728 15537
L15746 15574
L15746 15631
L15728 15668
L15709 15687
L15671 15706
L15521 15706
" />
<path d="M15896 15537
L15915 15518
L15953 15499
L16046 15499
L16084 15518
L16103 15537
L16121 15574
L16121 15612
L16103 15668
L15878 15893
L16121 15893
" />
<path d="M16309 15893
L16384 15893
L16421 15874
L16440 15856
L16478 15799
L16496 15724
L16496 15574
L16478 15537
L16459 15518
L16421 15499
L16346 15499
L16309 15518
L16290 15537
L16271 15574
L16271 15668
L16290 15706
L16309 15724
L16346 15743
L16421 15743
L16459 15724
L16478 15706
L16496 15668
" />
<text x="14500" y="13412.4"
textLength="1220.38" font-size="524.934" lengthAdjust="spacingAndGlyphs"
text-anchor="middle" opacity="0">R28</text>
<path d="M14246 13393
L14115 13206
" />
<path d="M14021 13393
L14021 12999
L14171 12999
L14209 13018
L14228 13037
L14246 13074
L14246 13131
L14228 13168
L14209 13187
L14171 13206
L14021 13206
" />
<path d="M14396 13037
L14415 13018
L14453 12999
L14546 12999
L14584 13018
L14603 13037
L14621 13074
L14621 13112
L14603 13168
L14378 13393
L14621 13393
" />
<path d="M14846 13168
L14809 13149
L14790 13131
L14771 13093
L14771 13074
L14790 13037
L14809 13018
L14846 12999
L14921 12999
L14959 13018
L14978 13037
L14996 13074
L14996 13093
L14978 13131
L14959 13149
L14921 13168
L14846 13168
L14809 13187
L14790 13206
L14771 13243
L14771 13318
L14790 13356
L14809 13374
L14846 13393
L14921 13393
L14959 13374
L14978 13356
L14996 13318
L14996 13243
L14978 13206
L14959 13187
L14921 13168
" />
<text x="26000" y="8912.4"
textLength="1220.38" font-size="524.934" lengthAdjust="spacingAndGlyphs"
text-anchor="middle" opacity="0">R27</text>
<path d="M25746 8893
L25615 8706
" />
<path d="M25521 8893
L25521 8499
L25671 8499
L25709 8518
L25728 8537
L25746 8574
L25746 8631
L25728 8668
L25709 8687
L25671 8706
L25521 8706
" />
<path d="M25896 8537
L25915 8518
L25953 8499
L26046 8499
L26084 8518
L26103 8537
L26121 8574
L26121 8612
L26103 8668
L25878 8893
L26121 8893
" />
<path d="M26253 8499
L26515 8499
L26346 8893
" />
<text x="26000.2" y="4412.4"
textLength="1220.38" font-size="524.934" lengthAdjust="spacingAndGlyphs"
text-anchor="middle" opacity="0">R26</text>
<path d="M25747 4393
L25615 4206
" />
<path d="M25522 4393
L25522 3999
L25672 3999
L25709 4018
L25728 4037
L25747 4074
L25747 4131
L25728 4168
L25709 4187
L25672 4206
L25522 4206
" />
<path d="M25897 4037
L25915 4018
L25953 3999
L26047 3999
L26084 4018
L26103 4037
L26122 4074
L26122 4112
L26103 4168
L25878 4393
L26122 4393
" />
<path d="M26459 3999
L26384 3999
L26347 4018
L26328 4037
L26290 4093
L26272 4168
L26272 4318
L26290 4356
L26309 4374
L26347 4393
L26422 4393
L26459 4374
L26478 4356
L26497 4318
L26497 4224
L26478 4187
L26459 4168
L26422 4149
L26347 4149
L26309 4168
L26290 4187
L26272 4224
" />
<text x="26000" y="5912.4"
textLength="1220.38" font-size="524.934" lengthAdjust="spacingAndGlyphs"
text-anchor="middle" opacity="0">R25</text>
<path d="M25746 5893
L25615 5706
" />
<path d="M25521 5893
L25521 5499
L25671 5499
L25709 5518
L25728 5537
L25746 5574
L25746 5631
L25728 5668
L25709 5687
L25671 5706
L25521 5706
" />
<path d="M25896 5537
L25915 5518
L25953 5499
L26046 5499
L26084 5518
L26103 5537
L26121 5574
L26121 5612
L26103 5668
L25878 5893
L26121 5893
" />
<path d="M26478 5499
L26290 5499
L26271 5687
L26290 5668
L26328 5649
L26421 5649
L26459 5668
L26478 5687
L26496 5724
L26496 5818
L26478 5856
L26459 5874
L26421 5893
L26328 5893
L26290 5874
L26271 5856
" />
<text x="26000" y="2912.4"
textLength="1220.38" font-size="524.934" lengthAdjust="spacingAndGlyphs"
text-anchor="middle" opacity="0">R24</text>
<path d="M25746 2893
L25615 2706
" />
<path d="M25521 2893
L25521 2499
L25671 2499
L25709 2518
L25728 2537
L25746 2574
L25746 2631
L25728 2668
L25709 2687
L25671 2706
L25521 2706
" />
<path d="M25896 2537
L25915 2518
L25953 2499
L26046 2499
L26084 2518
L26103 2537
L26121 2574
L26121 2612
L26103 2668
L25878 2893
L26121 2893
" />
<path d="M26459 2631
L26459 2893
" />
<path d="M26365 2481
L26271 2762
L26515 2762
" />
<text x="26000" y="7412.4"
textLength="1220.38" font-size="524.934" lengthAdjust="spacingAndGlyphs"
text-anchor="middle" opacity="0">R23</text>
<path d="M25746 7393
L25615 7206
" />
<path d="M25521 7393
L25521 6999
L25671 6999
L25709 7018
L25728 7037
L25746 7074
L25746 7131
L25728 7168
L25709 7187
L25671 7206
L25521 7206
" />
<path d="M25896 7037
L25915 7018
L25953 6999
L26046 6999
L26084 7018
L26103 7037
L26121 7074
L26121 7112
L26103 7168
L25878 7393
L26121 7393
" />
<path d="M26253 6999
L26496 6999
L26365 7149
L26421 7149
L26459 7168
L26478 7187
L26496 7224
L26496 7318
L26478 7356
L26459 7374
L26421 7393
L26309 7393
L26271 7374
L26253 7356
" />
<text x="20000" y="11912.4"
textLength="1220.38" font-size="524.934" lengthAdjust="spacingAndGlyphs"
text-anchor="middle" opacity="0">R22</text>
<path d="M19746 11893
L19615 11706
" />
<path d="M19521 11893
L19521 11499
L19671 11499
L19709 11518
L19728 11537
L19746 11574
L19746 11631
L19728 11668
L19709 11687
L19671 11706
L19521 11706
" />
<path d="M19896 11537
L19915 11518
L19953 11499
L20046 11499
L20084 11518
L20103 11537
L20121 11574
L20121 11612
L20103 11668
L19878 11893
L20121 11893
" />
<path d="M20271 11537
L20290 11518
L20328 11499
L20421 11499
L20459 11518
L20478 11537
L20496 11574
L20496 11612
L20478 11668
L20253 11893
L20496 11893
" />
<text x="25075.6" y="11128.9"
textLength="1220.38" font-size="524.934" lengthAdjust="spacingAndGlyphs"
text-anchor="middle" opacity="0">R21</text>
<path d="M24822 11110
L24691 10922
" />
<path d="M24597 11110
L24597 10716
L24747 10716
L24785 10735
L24803 10753
L24822 10791
L24822 10847
L24803 10885
L24785 10903
L24747 10922
L24597 10922
" />
<path d="M24972 10753
L24991 10735
L25028 10716
L25122 10716
L25159 10735
L25178 10753
L25197 10791
L25197 10828
L25178 10885
L24953 11110
L25197 11110
" />
<path d="M25572 11110
L25347 11110
" />
<path d="M25459 11110
L25459 10716
L25422 10772
L25384 10810
L25347 10828
" />
<g transform="rotate(-90 29700 1715.55)">
<text x="29700" y="1912.4"
textLength="1220.38" font-size="524.934" lengthAdjust="spacingAndGlyphs"
text-anchor="middle" opacity="0">R20</text>
</g>
<path d="M29878 1968
L29690 2099
" />
<path d="M29878 2193
L29484 2193
L29484 2043
L29503 2006
L29521 1987
L29559 1968
L29615 1968
L29653 1987
L29671 2006
L29690 2043
L29690 2193
" />
<path d="M29521 1818
L29503 1799
L29484 1762
L29484 1668
L29503 1631
L29521 1612
L29559 1593
L29596 1593
L29653 1612
L29878 1837
L29878 1593
" />
<path d="M29484 1349
L29484 1312
L29503 1274
L29521 1256
L29559 1237
L29634 1218
L29728 1218
L29803 1237
L29840 1256
L29859 1274
L29878 1312
L29878 1349
L29859 1387
L29840 1406
L29803 1424
L29728 1443
L29634 1443
L29559 1424
L29521 1406
L29503 1387
L29484 1349
" />
<text x="26500" y="9712.4"
textLength="1220.38" font-size="524.934" lengthAdjust="spacingAndGlyphs"
text-anchor="middle" opacity="0">R19</text>
<path d="M26246 9693
L26115 9506
" />
<path d="M26021 9693
L26021 9299
L26171 9299
L26209 9318
L26228 9337
L26246 9374
L26246 9431
L26228 9468
L26209 9487
L26171 9506
L26021 9506
" />
<path d="M26621 9693
L26396 9693
" />
<path d="M26509 9693
L26509 9299
L26471 9356
L26434 9393
L26396 9412
" />
<path d="M26809 9693
L26884 9693
L26921 9674
L26940 9656
L26978 9599
L26996 9524
L26996 9374
L26978 9337
L26959 9318
L26921 9299
L26846 9299
L26809 9318
L26790 9337
L26771 9374
L26771 9468
L26790 9506
L26809 9524
L26846 9543
L26921 9543
L26959 9524
L26978 9506
L26996 9468
" />
<text x="16000" y="4412.4"
textLength="1220.38" font-size="524.934" lengthAdjust="spacingAndGlyphs"
text-anchor="middle" opacity="0">R18</text>
<path d="M15746 4393
L15615 4206
" />
<path d="M15521 4393
L15521 3999
L15671 3999
L15709 4018
L15728 4037
L15746 4074
L15746 4131
L15728 4168
L15709 4187
L15671 4206
L15521 4206
" />
<path d="M16121 4393
L15896 4393
" />
<path d="M16009 4393
L16009 3999
L15971 4056
L15934 4093
L15896 4112
" />
<path d="M16346 4168
L16309 4149
L16290 4131
L16271 4093
L16271 4074
L16290 4037
L16309 4018
L16346 3999
L16421 3999
L16459 4018
L16478 4037
L16496 4074
L16496 4093
L16478 4131
L16459 4149
L16421 4168
L16346 4168
L16309 4187
L16290 4206
L16271 4243
L16271 4318
L16290 4356
L16309 4374
L16346 4393
L16421 4393
L16459 4374
L16478 4356
L16496 4318
L16496 4243
L16478 4206
L16459 4187
L16421 4168
" />
<text x="14500" y="11912.4"
textLength="1220.38" font-size="524.934" lengthAdjust="spacingAndGlyphs"
text-anchor="middle" opacity="0">R17</text>
<path d="M14246 11893
L14115 11706
" />
<path d="M14021 11893
L14021 11499
L14171 11499
L14209 11518
L14228 11537
L14246 11574
L14246 11631
L14228 11668
L14209 11687
L14171 11706
L14021 11706
" />
<path d="M14621 11893
L14396 11893
" />
<path d="M14509 11893
L14509 11499
L14471 11556
L14434 11593
L14396 11612
" />
<path d="M14753 11499
L15015 11499
L14846 11893
" />
<text x="16000" y="2912.4"
textLength="1220.38" font-size="524.934" lengthAdjust="spacingAndGlyphs"
text-anchor="middle" opacity="0">R16</text>
<path d="M15746 2893
L15615 2706
" />
<path d="M15521 2893
L15521 2499
L15671 2499
L15709 2518
L15728 2537
L15746 2574
L15746 2631
L15728 2668
L15709 2687
L15671 2706
L15521 2706
" />
<path d="M16121 2893
L15896 2893
" />
<path d="M16009 2893
L16009 2499
L15971 2556
L15934 2593
L15896 2612
" />
<path d="M16459 2499
L16384 2499
L16346 2518
L16328 2537
L16290 2593
L16271 2668
L16271 2818
L16290 2856
L16309 2874
L16346 2893
L16421 2893
L16459 2874
L16478 2856
L16496 2818
L16496 2724
L16478 2687
L16459 2668
L16421 2649
L16346 2649
L16309 2668
L16290 2687
L16271 2724
" />
<text x="16000" y="7412.4"
textLength="1220.38" font-size="524.934" lengthAdjust="spacingAndGlyphs"
text-anchor="middle" opacity="0">R15</text>
<path d="M15746 7393
L15615 7206
" />
<path d="M15521 7393
L15521 6999
L15671 6999
L15709 7018
L15728 7037
L15746 7074
L15746 7131
L15728 7168
L15709 7187
L15671 7206
L15521 7206
" />
<path d="M16121 7393
L15896 7393
" />
<path d="M16009 7393
L16009 6999
L15971 7056
L15934 7093
L15896 7112
" />
<path d="M16478 6999
L16290 6999
L16271 7187
L16290 7168
L16328 7149
L16421 7149
L16459 7168
L16478 7187
L16496 7224
L16496 7318
L16478 7356
L16459 7374
L16421 7393
L16328 7393
L16290 7374
L16271 7356
" />
<text x="10924.2" y="11912.4"
textLength="1220.38" font-size="524.934" lengthAdjust="spacingAndGlyphs"
text-anchor="middle" opacity="0">R14</text>
<path d="M10671 11893
L10539 11706
" />
<path d="M10446 11893
L10446 11499
L10596 11499
L10633 11518
L10652 11537
L10671 11574
L10671 11631
L10652 11668
L10633 11687
L10596 11706
L10446 11706
" />
<path d="M11046 11893
L10821 11893
" />
<path d="M10933 11893
L10933 11499
L10896 11556
L10858 11593
L10821 11612
" />
<path d="M11383 11631
L11383 11893
" />
<path d="M11289 11481
L11196 11762
L11439 11762
" />
<text x="15000" y="11128.9"
textLength="1220.38" font-size="524.934" lengthAdjust="spacingAndGlyphs"
text-anchor="middle" opacity="0">R13</text>
<path d="M14746 11110
L14615 10922
" />
<path d="M14521 11110
L14521 10716
L14671 10716
L14709 10735
L14728 10753
L14746 10791
L14746 10847
L14728 10885
L14709 10903
L14671 10922
L14521 10922
" />
<path d="M15121 11110
L14896 11110
" />
<path d="M15009 11110
L15009 10716
L14971 10772
L14934 10810
L14896 10828
" />
<path d="M15253 10716
L15496 10716
L15365 10866
L15421 10866
L15459 10885
L15478 10903
L15496 10941
L15496 11035
L15478 11072
L15459 11091
L15421 11110
L15309 11110
L15271 11091
L15253 11072
" />
<g transform="rotate(-90 29700 4815.55)">
<text x="29700" y="5012.4"
textLength="1220.38" font-size="524.934" lengthAdjust="spacingAndGlyphs"
text-anchor="middle" opacity="0">R12</text>
</g>
<path d="M29878 5068
L29690 5199
" />
<path d="M29878 5293
L29484 5293
L29484 5143
L29503 5106
L29521 5087
L29559 5068
L29615 5068
L29653 5087
L29671 5106
L29690 5143
L29690 5293
" />
<path d="M29878 4693
L29878 4918
" />
<path d="M29878 4806
L29484 4806
L29540 4843
L29578 4881
L29596 4918
" />
<path d="M29521 4543
L29503 4524
L29484 4487
L29484 4393
L29503 4356
L29521 4337
L29559 4318
L29596 4318
L29653 4337
L29878 4562
L29878 4318
" />
<text x="16500" y="9712.4"
textLength="1220.38" font-size="524.934" lengthAdjust="spacingAndGlyphs"
text-anchor="middle" opacity="0">R11</text>
<path d="M16246 9693
L16115 9506
" />
<path d="M16021 9693
L16021 9299
L16171 9299
L16209 9318
L16228 9337
L16246 9374
L16246 9431
L16228 9468
L16209 9487
L16171 9506
L16021 9506
" />
<path d="M16621 9693
L16396 9693
" />
<path d="M16509 9693
L16509 9299
L16471 9356
L16434 9393
L16396 9412
" />
<path d="M16996 9693
L16771 9693
" />
<path d="M16884 9693
L16884 9299
L16846 9356
L16809 9393
L16771 9412
" />
<text x="16000" y="8912.4"
textLength="1220.38" font-size="524.934" lengthAdjust="spacingAndGlyphs"
text-anchor="middle" opacity="0">R10</text>
<path d="M15746 8893
L15615 8706
" />
<path d="M15521 8893
L15521 8499
L15671 8499
L15709 8518
L15728 8537
L15746 8574
L15746 8631
L15728 8668
L15709 8687
L15671 8706
L15521 8706
" />
<path d="M16121 8893
L15896 8893
" />
<path d="M16009 8893
L16009 8499
L15971 8556
L15934 8593
L15896 8612
" />
<path d="M16365 8499
L16403 8499
L16440 8518
L16459 8537
L16478 8574
L16496 8649
L16496 8743
L16478 8818
L16459 8856
L16440 8874
L16403 8893
L16365 8893
L16328 8874
L16309 8856
L16290 8818
L16271 8743
L16271 8649
L16290 8574
L16309 8537
L16328 8518
L16365 8499
" />
<text x="6000" y="8912.4"
textLength="845.426" font-size="524.934" lengthAdjust="spacingAndGlyphs"
text-anchor="middle" opacity="0">R9</text>
<path d="M5934 8893
L5803 8706
" />
<path d="M5709 8893
L5709 8499
L5859 8499
L5896 8518
L5915 8537
L5934 8574
L5934 8631
L5915 8668
L5896 8687
L5859 8706
L5709 8706
" />
<path d="M6121 8893
L6196 8893
L6234 8874
L6253 8856
L6290 8799
L6309 8724
L6309 8574
L6290 8537
L6271 8518
L6234 8499
L6159 8499
L6121 8518
L6103 8537
L6084 8574
L6084 8668
L6103 8706
L6121 8724
L6159 8743
L6234 8743
L6271 8724
L6290 8706
L6309 8668
" />
<text x="6000" y="4412.4"
textLength="845.426" font-size="524.934" lengthAdjust="spacingAndGlyphs"
text-anchor="middle" opacity="0">R8</text>
<path d="M5934 4393
L5803 4206
" />
<path d="M5709 4393
L5709 3999
L5859 3999
L5896 4018
L5915 4037
L5934 4074
L5934 4131
L5915 4168
L5896 4187
L5859 4206
L5709 4206
" />
<path d="M6159 4168
L6121 4149
L6103 4131
L6084 4093
L6084 4074
L6103 4037
L6121 4018
L6159 3999
L6234 3999
L6271 4018
L6290 4037
L6309 4074
L6309 4093
L6290 4131
L6271 4149
L6234 4168
L6159 4168
L6121 4187
L6103 4206
L6084 4243
L6084 4318
L6103 4356
L6121 4374
L6159 4393
L6234 4393
L6271 4374
L6290 4356
L6309 4318
L6309 4243
L6290 4206
L6271 4187
L6234 4168
" />
<text x="6000" y="5912.4"
textLength="845.426" font-size="524.934" lengthAdjust="spacingAndGlyphs"
text-anchor="middle" opacity="0">R7</text>
<path d="M5934 5893
L5803 5706
" />
<path d="M5709 5893
L5709 5499
L5859 5499
L5896 5518
L5915 5537
L5934 5574
L5934 5631
L5915 5668
L5896 5687
L5859 5706
L5709 5706
" />
<path d="M6065 5499
L6328 5499
L6159 5893
" />
<text x="6000" y="2912.4"
textLength="845.426" font-size="524.934" lengthAdjust="spacingAndGlyphs"
text-anchor="middle" opacity="0">R6</text>
<path d="M5934 2893
L5803 2706
" />
<path d="M5709 2893
L5709 2499
L5859 2499
L5896 2518
L5915 2537
L5934 2574
L5934 2631
L5915 2668
L5896 2687
L5859 2706
L5709 2706
" />
<path d="M6271 2499
L6196 2499
L6159 2518
L6140 2537
L6103 2593
L6084 2668
L6084 2818
L6103 2856
L6121 2874
L6159 2893
L6234 2893
L6271 2874
L6290 2856
L6309 2818
L6309 2724
L6290 2687
L6271 2668
L6234 2649
L6159 2649
L6121 2668
L6103 2687
L6084 2724
" />
<text x="6000" y="7412.4"
textLength="845.426" font-size="524.934" lengthAdjust="spacingAndGlyphs"
text-anchor="middle" opacity="0">R5</text>
<path d="M5934 7393
L5803 7206
" />
<path d="M5709 7393
L5709 6999
L5859 6999
L5896 7018
L5915 7037
L5934 7074
L5934 7131
L5915 7168
L5896 7187
L5859 7206
L5709 7206
" />
<path d="M6290 6999
L6103 6999
L6084 7187
L6103 7168
L6140 7149
L6234 7149
L6271 7168
L6290 7187
L6309 7224
L6309 7318
L6290 7356
L6271 7374
L6234 7393
L6140 7393
L6103 7374
L6084 7356
" />
<text x="1000" y="11912.4"
textLength="845.426" font-size="524.934" lengthAdjust="spacingAndGlyphs"
text-anchor="middle" opacity="0">R4</text>
<path d="M934 11893
L803 11706
" />
<path d="M709 11893
L709 11499
L859 11499
L896 11518
L915 11537
L934 11574
L934 11631
L915 11668
L896 11687
L859 11706
L709 11706
" />
<path d="M1271 11631
L1271 11893
" />
<path d="M1178 11481
L1084 11762
L1328 11762
" />
<g transform="rotate(-90 3000 17215.6)">
<text x="3000" y="17412.4"
textLength="1201.63" font-size="524.934" lengthAdjust="spacingAndGlyphs"
text-anchor="middle" opacity="0">Ro3</text>
</g>
<path d="M3178 17459
L2990 17590
" />
<path d="M3178 17684
L2784 17684
L2784 17534
L2803 17496
L2821 17478
L2859 17459
L2915 17459
L2953 17478
L2971 17496
L2990 17534
L2990 17684
" />
<path d="M3178 17234
L3159 17271
L3140 17290
L3103 17309
L2990 17309
L2953 17290
L2934 17271
L2915 17234
L2915 17178
L2934 17140
L2953 17121
L2990 17103
L3103 17103
L3140 17121
L3159 17140
L3178 17178
L3178 17234
" />
<path d="M2784 16971
L2784 16728
L2934 16859
L2934 16803
L2953 16765
L2971 16746
L3009 16728
L3103 16728
L3140 16746
L3159 16765
L3178 16803
L3178 16915
L3159 16953
L3140 16971
" />
<g transform="rotate(-90 2000 17215.6)">
<text x="2000" y="17412.4"
textLength="1201.63" font-size="524.934" lengthAdjust="spacingAndGlyphs"
text-anchor="middle" opacity="0">Ro2</text>
</g>
<path d="M2178 17459
L1990 17590
" />
<path d="M2178 17684
L1784 17684
L1784 17534
L1803 17496
L1821 17478
L1859 17459
L1915 17459
L1953 17478
L1971 17496
L1990 17534
L1990 17684
" />
<path d="M2178 17234
L2159 17271
L2140 17290
L2103 17309
L1990 17309
L1953 17290
L1934 17271
L1915 17234
L1915 17178
L1934 17140
L1953 17121
L1990 17103
L2103 17103
L2140 17121
L2159 17140
L2178 17178
L2178 17234
" />
<path d="M1821 16953
L1803 16934
L1784 16896
L1784 16803
L1803 16765
L1821 16746
L1859 16728
L1896 16728
L1953 16746
L2178 16971
L2178 16728
" />
<g transform="rotate(-90 29700 7915.75)">
<text x="29700" y="8112.6"
textLength="845.426" font-size="524.934" lengthAdjust="spacingAndGlyphs"
text-anchor="middle" opacity="0">R2</text>
</g>
<path d="M29878 7981
L29690 8112
" />
<path d="M29878 8206
L29484 8206
L29484 8056
L29503 8018
L29521 8000
L29559 7981
L29615 7981
L29653 8000
L29671 8018
L29690 8056
L29690 8206
" />
<path d="M29521 7831
L29503 7812
L29484 7775
L29484 7681
L29503 7643
L29521 7625
L29559 7606
L29596 7606
L29653 7625
L29878 7850
L29878 7606
" />
<g transform="rotate(-90 1000 17215.6)">
<text x="1000" y="17412.4"
textLength="1201.63" font-size="524.934" lengthAdjust="spacingAndGlyphs"
text-anchor="middle" opacity="0">Ro1</text>
</g>
<path d="M1178 17459
L990 17590
" />
<path d="M1178 17684
L784 17684
L784 17534
L803 17496
L821 17478
L859 17459
L915 17459
L953 17478
L971 17496
L990 17534
L990 17684
" />
<path d="M1178 17234
L1159 17271
L1140 17290
L1103 17309
L990 17309
L953 17290
L934 17271
L915 17234
L915 17178
L934 17140
L953 17121
L990 17103
L1103 17103
L1140 17121
L1159 17140
L1178 17178
L1178 17234
" />
<path d="M1178 16728
L1178 16953
" />
<path d="M1178 16840
L784 16840
L840 16878
L878 16915
L896 16953
" />
<text x="6400" y="9712.4"
textLength="845.426" font-size="524.934" lengthAdjust="spacingAndGlyphs"
text-anchor="middle" opacity="0">R1</text>
<path d="M6334 9693
L6203 9506
" />
<path d="M6109 9693
L6109 9299
L6259 9299
L6296 9318
L6315 9337
L6334 9374
L6334 9431
L6315 9468
L6296 9487
L6259 9506
L6109 9506
" />
<path d="M6709 9693
L6484 9693
" />
<path d="M6596 9693
L6596 9299
L6559 9356
L6521 9393
L6484 9412
" />
<text x="19000" y="14512.4"
textLength="864.173" font-size="524.934" lengthAdjust="spacingAndGlyphs"
text-anchor="middle" opacity="0">Q1</text>
<path d="M18962 14531
L18925 14512
L18887 14474
L18831 14418
L18793 14399
L18756 14399
" />
<path d="M18775 14493
L18737 14474
L18700 14437
L18681 14362
L18681 14231
L18700 14156
L18737 14118
L18775 14099
L18850 14099
L18887 14118
L18925 14156
L18943 14231
L18943 14362
L18925 14437
L18887 14474
L18850 14493
L18775 14493
" />
<path d="M19318 14493
L19093 14493
" />
<path d="M19206 14493
L19206 14099
L19168 14156
L19131 14193
L19093 14212
" />
<text x="9500" y="19003"
textLength="770.435" font-size="524.934" lengthAdjust="spacingAndGlyphs"
text-anchor="middle" opacity="0">L2</text>
<path d="M9434 18984
L9246 18984
L9246 18590
" />
<path d="M9546 18627
L9565 18609
L9603 18590
L9696 18590
L9734 18609
L9753 18627
L9771 18665
L9771 18702
L9753 18759
L9528 18984
L9771 18984
" />
<text x="9500" y="16003"
textLength="770.435" font-size="524.934" lengthAdjust="spacingAndGlyphs"
text-anchor="middle" opacity="0">L1</text>
<path d="M9434 15984
L9246 15984
L9246 15590
" />
<path d="M9771 15984
L9546 15984
" />
<path d="M9659 15984
L9659 15590
L9621 15646
L9584 15684
L9546 15702
" />
<text x="32000" y="17995.1"
textLength="751.687" font-size="524.934" lengthAdjust="spacingAndGlyphs"
text-anchor="middle" opacity="0">J7</text>
<path d="M31868 17582
L31868 17863
L31850 17920
L31812 17957
L31756 17976
L31718 17976
" />
<path d="M32018 17582
L32281 17582
L32112 17976
" />
<text x="32000" y="10995.1"
textLength="751.687" font-size="524.934" lengthAdjust="spacingAndGlyphs"
text-anchor="middle" opacity="0">J6</text>
<path d="M31868 10582
L31868 10863
L31850 10920
L31812 10957
L31756 10976
L31718 10976
" />
<path d="M32224 10582
L32149 10582
L32112 10601
L32093 10620
L32056 10676
L32037 10751
L32037 10901
L32056 10938
L32074 10957
L32112 10976
L32187 10976
L32224 10957
L32243 10938
L32262 10901
L32262 10807
L32243 10770
L32224 10751
L32187 10732
L32112 10732
L32074 10751
L32056 10770
L32037 10807
" />
<text x="32000" y="14495.1"
textLength="751.687" font-size="524.934" lengthAdjust="spacingAndGlyphs"
text-anchor="middle" opacity="0">J5</text>
<path d="M31868 14082
L31868 14363
L31850 14420
L31812 14457
L31756 14476
L31718 14476
" />
<path d="M32243 14082
L32056 14082
L32037 14270
L32056 14251
L32093 14232
L32187 14232
L32224 14251
L32243 14270
L32262 14307
L32262 14401
L32243 14438
L32224 14457
L32187 14476
L32093 14476
L32056 14457
L32037 14438
" />
<text x="32000" y="495.079"
textLength="751.687" font-size="524.934" lengthAdjust="spacingAndGlyphs"
text-anchor="middle" opacity="0">J4</text>
<path d="M31868 82
L31868 363
L31850 420
L31812 457
L31756 476
L31718 476
" />
<path d="M32224 213
L32224 476
" />
<path d="M32131 63
L32037 345
L32281 345
" />
<text x="32000" y="7495.08"
textLength="751.687" font-size="524.934" lengthAdjust="spacingAndGlyphs"
text-anchor="middle" opacity="0">J3</text>
<path d="M31868 7082
L31868 7363
L31850 7420
L31812 7457
L31756 7476
L31718 7476
" />
<path d="M32018 7082
L32262 7082
L32131 7232
L32187 7232
L32224 7251
L32243 7270
L32262 7307
L32262 7401
L32243 7438
L32224 7457
L32187 7476
L32074 7476
L32037 7457
L32018 7438
" />
<text x="32000" y="3995.08"
textLength="751.687" font-size="524.934" lengthAdjust="spacingAndGlyphs"
text-anchor="middle" opacity="0">J2</text>
<path d="M31868 3582
L31868 3863
L31850 3920
L31812 3957
L31756 3976
L31718 3976
" />
<path d="M32037 3620
L32056 3601
L32093 3582
L32187 3582
L32224 3601
L32243 3620
L32262 3657
L32262 3695
L32243 3751
L32018 3976
L32262 3976
" />
<text x="26000" y="13912.4"
textLength="1220.38" font-size="524.934" lengthAdjust="spacingAndGlyphs"
text-anchor="middle" opacity="0">C30</text>
<path d="M25746 13856
L25728 13874
L25671 13893
L25634 13893
L25578 13874
L25540 13837
L25521 13799
L25503 13724
L25503 13668
L25521 13593
L25540 13556
L25578 13518
L25634 13499
L25671 13499
L25728 13518
L25746 13537
" />
<path d="M25878 13499
L26121 13499
L25990 13649
L26046 13649
L26084 13668
L26103 13687
L26121 13724
L26121 13818
L26103 13856
L26084 13874
L26046 13893
L25934 13893
L25896 13874
L25878 13856
" />
<path d="M26365 13499
L26403 13499
L26440 13518
L26459 13537
L26478 13574
L26496 13649
L26496 13743
L26478 13818
L26459 13856
L26440 13874
L26403 13893
L26365 13893
L26328 13874
L26309 13856
L26290 13818
L26271 13743
L26271 13649
L26290 13574
L26309 13537
L26328 13518
L26365 13499
" />
<text x="21000" y="10912.4"
textLength="1220.38" font-size="524.934" lengthAdjust="spacingAndGlyphs"
text-anchor="middle" opacity="0">C14</text>
<path d="M20746 10856
L20728 10874
L20671 10893
L20634 10893
L20578 10874
L20540 10837
L20521 10799
L20503 10724
L20503 10668
L20521 10593
L20540 10556
L20578 10518
L20634 10499
L20671 10499
L20728 10518
L20746 10537
" />
<path d="M21121 10893
L20896 10893
" />
<path d="M21009 10893
L21009 10499
L20971 10556
L20934 10593
L20896 10612
" />
<path d="M21459 10631
L21459 10893
" />
<path d="M21365 10481
L21271 10762
L21515 10762
" />
<text x="22000" y="1912.4"
textLength="1220.38" font-size="524.934" lengthAdjust="spacingAndGlyphs"
text-anchor="middle" opacity="0">C13</text>
<path d="M21746 1856
L21728 1874
L21671 1893
L21634 1893
L21578 1874
L21540 1837
L21521 1799
L21503 1724
L21503 1668
L21521 1593
L21540 1556
L21578 1518
L21634 1499
L21671 1499
L21728 1518
L21746 1537
" />
<path d="M22121 1893
L21896 1893
" />
<path d="M22009 1893
L22009 1499
L21971 1556
L21934 1593
L21896 1612
" />
<path d="M22253 1499
L22496 1499
L22365 1649
L22421 1649
L22459 1668
L22478 1687
L22496 1724
L22496 1818
L22478 1856
L22459 1874
L22421 1893
L22309 1893
L22271 1874
L22253 1856
" />
<text x="4200" y="16812.4"
textLength="1220.38" font-size="524.934" lengthAdjust="spacingAndGlyphs"
text-anchor="middle" opacity="0">C12</text>
<path d="M3946 16756
L3928 16774
L3871 16793
L3834 16793
L3778 16774
L3740 16737
L3721 16699
L3703 16624
L3703 16568
L3721 16493
L3740 16456
L3778 16418
L3834 16399
L3871 16399
L3928 16418
L3946 16437
" />
<path d="M4321 16793
L4096 16793
" />
<path d="M4209 16793
L4209 16399
L4171 16456
L4134 16493
L4096 16512
" />
<path d="M4471 16437
L4490 16418
L4528 16399
L4621 16399
L4659 16418
L4678 16437
L4696 16474
L4696 16512
L4678 16568
L4453 16793
L4696 16793
" />
<text x="4200" y="13712.4"
textLength="1220.38" font-size="524.934" lengthAdjust="spacingAndGlyphs"
text-anchor="middle" opacity="0">C11</text>
<path d="M3946 13656
L3928 13674
L3871 13693
L3834 13693
L3778 13674
L3740 13637
L3721 13599
L3703 13524
L3703 13468
L3721 13393
L3740 13356
L3778 13318
L3834 13299
L3871 13299
L3928 13318
L3946 13337
" />
<path d="M4321 13693
L4096 13693
" />
<path d="M4209 13693
L4209 13299
L4171 13356
L4134 13393
L4096 13412
" />
<path d="M4696 13693
L4471 13693
" />
<path d="M4584 13693
L4584 13299
L4546 13356
L4509 13393
L4471 13412
" />
<text x="12500" y="16662.4"
textLength="1220.38" font-size="524.934" lengthAdjust="spacingAndGlyphs"
text-anchor="middle" opacity="0">C10</text>
<path d="M12246 16606
L12228 16624
L12171 16643
L12134 16643
L12078 16624
L12040 16587
L12021 16549
L12003 16474
L12003 16418
L12021 16343
L12040 16306
L12078 16268
L12134 16249
L12171 16249
L12228 16268
L12246 16287
" />
<path d="M12621 16643
L12396 16643
" />
<path d="M12509 16643
L12509 16249
L12471 16306
L12434 16343
L12396 16362
" />
<path d="M12865 16249
L12903 16249
L12940 16268
L12959 16287
L12978 16324
L12996 16399
L12996 16493
L12978 16568
L12959 16606
L12940 16624
L12903 16643
L12865 16643
L12828 16624
L12809 16606
L12790 16568
L12771 16493
L12771 16399
L12790 16324
L12809 16287
L12828 16268
L12865 16249
" />
<text x="12600" y="13612.4"
textLength="845.426" font-size="524.934" lengthAdjust="spacingAndGlyphs"
text-anchor="middle" opacity="0">C9</text>
<path d="M12534 13556
L12515 13574
L12459 13593
L12421 13593
L12365 13574
L12328 13537
L12309 13499
L12290 13424
L12290 13368
L12309 13293
L12328 13256
L12365 13218
L12421 13199
L12459 13199
L12515 13218
L12534 13237
" />
<path d="M12721 13593
L12796 13593
L12834 13574
L12853 13556
L12890 13499
L12909 13424
L12909 13274
L12890 13237
L12871 13218
L12834 13199
L12759 13199
L12721 13218
L12703 13237
L12684 13274
L12684 13368
L12703 13406
L12721 13424
L12759 13443
L12834 13443
L12871 13424
L12890 13406
L12909 13368
" />
<text x="11000" y="10912.4"
textLength="845.426" font-size="524.934" lengthAdjust="spacingAndGlyphs"
text-anchor="middle" opacity="0">C6</text>
<path d="M10934 10856
L10915 10874
L10859 10893
L10821 10893
L10765 10874
L10728 10837
L10709 10799
L10690 10724
L10690 10668
L10709 10593
L10728 10556
L10765 10518
L10821 10499
L10859 10499
L10915 10518
L10934 10537
" />
<path d="M11271 10499
L11196 10499
L11159 10518
L11140 10537
L11103 10593
L11084 10668
L11084 10818
L11103 10856
L11121 10874
L11159 10893
L11234 10893
L11271 10874
L11290 10856
L11309 10818
L11309 10724
L11290 10687
L11271 10668
L11234 10649
L11159 10649
L11121 10668
L11103 10687
L11084 10724
" />
<g transform="rotate(-90 20500 19715.6)">
<text x="20500" y="19912.4"
textLength="1201.63" font-size="524.934" lengthAdjust="spacingAndGlyphs"
text-anchor="middle" opacity="0">Co3</text>
</g>
<path d="M20640 19959
L20659 19978
L20678 20034
L20678 20071
L20659 20127
L20621 20165
L20584 20184
L20509 20202
L20453 20202
L20378 20184
L20340 20165
L20303 20127
L20284 20071
L20284 20034
L20303 19978
L20321 19959
" />
<path d="M20678 19734
L20659 19771
L20640 19790
L20603 19809
L20490 19809
L20453 19790
L20434 19771
L20415 19734
L20415 19678
L20434 19640
L20453 19621
L20490 19603
L20603 19603
L20640 19621
L20659 19640
L20678 19678
L20678 19734
" />
<path d="M20284 19471
L20284 19228
L20434 19359
L20434 19303
L20453 19265
L20471 19246
L20509 19228
L20603 19228
L20640 19246
L20659 19265
L20678 19303
L20678 19415
L20659 19453
L20640 19471
" />
<g transform="rotate(-90 20500 18215.6)">
<text x="20500" y="18412.4"
textLength="1201.63" font-size="524.934" lengthAdjust="spacingAndGlyphs"
text-anchor="middle" opacity="0">Co2</text>
</g>
<path d="M20640 18459
L20659 18478
L20678 18534
L20678 18571
L20659 18627
L20621 18665
L20584 18684
L20509 18702
L20453 18702
L20378 18684
L20340 18665
L20303 18627
L20284 18571
L20284 18534
L20303 18478
L20321 18459
" />
<path d="M20678 18234
L20659 18271
L20640 18290
L20603 18309
L20490 18309
L20453 18290
L20434 18271
L20415 18234
L20415 18178
L20434 18140
L20453 18121
L20490 18103
L20603 18103
L20640 18121
L20659 18140
L20678 18178
L20678 18234
" />
<path d="M20321 17953
L20303 17934
L20284 17896
L20284 17803
L20303 17765
L20321 17746
L20359 17728
L20396 17728
L20453 17746
L20678 17971
L20678 17728
" />
<text x="1000" y="10912.4"
textLength="845.426" font-size="524.934" lengthAdjust="spacingAndGlyphs"
text-anchor="middle" opacity="0">C2</text>
<path d="M934 10856
L915 10874
L859 10893
L821 10893
L765 10874
L728 10837
L709 10799
L690 10724
L690 10668
L709 10593
L728 10556
L765 10518
L821 10499
L859 10499
L915 10518
L934 10537
" />
<path d="M1084 10537
L1103 10518
L1140 10499
L1234 10499
L1271 10518
L1290 10537
L1309 10574
L1309 10612
L1290 10668
L1065 10893
L1309 10893
" />
<text x="2000" y="1912.4"
textLength="845.426" font-size="524.934" lengthAdjust="spacingAndGlyphs"
text-anchor="middle" opacity="0">C1</text>
<path d="M1934 1856
L1915 1874
L1859 1893
L1821 1893
L1765 1874
L1728 1837
L1709 1799
L1690 1724
L1690 1668
L1709 1593
L1728 1556
L1765 1518
L1821 1499
L1859 1499
L1915 1518
L1934 1537
" />
<path d="M2309 1893
L2084 1893
" />
<path d="M2196 1893
L2196 1499
L2159 1556
L2121 1593
L2084 1612
" />
<g >
</g>
</g>
<g style="fill:#000000; fill-opacity:0.0; 
stroke:#000000; stroke-width:59.0551; stroke-opacity:1; 
stroke-linecap:round; stroke-linejoin:round;">
<g >
</g>
<g >
</g>
<g >
</g>
<g >
</g>
<g >
</g>
<g >
</g>
<g >
</g>
<g >
</g>
<g >
</g>
<g >
</g>
<g >
</g>
<g >
</g>
<g >
</g>
<g >
</g>
<g >
</g>
<g >
</g>
<g >
</g>
<g >
</g>
<g >
</g>
<g >
</g>
<g >
</g>
<g >
</g>
<g >
</g>
<g >
</g>
<g >
</g>
<g >
</g>
<g >
</g>
<g >
</g>
<g >
</g>
<g >
</g>
<g >
</g>
<g >
</g>
<g >
</g>
<g >
</g>
<g >
</g>
<g >
</g>
<g >
</g>
<g >
</g>
<g >
</g>
<g >
</g>
<g >
</g>
<g >
</g>
<g >
</g>
<g >
</g>
<g >
</g>
<g >
</g>
<g >
</g>
<g >
</g>
<g >
</g>
<g >
</g>
<g >
</g>
<g >
</g>
<g >
</g>
<g >
</g>
<g >
</g>
<g >
</g>
<g >
</g>
<g >
</g>
<g >
</g>
<g >
</g>
<g >
</g>
<g >
</g>
<g >
</g>
<g >
</g>
<g >
</g>
<g >
</g>
<g >
</g>
<g >
</g>
<g >
</g>
<g >
</g>
<g >
</g>
<g >
</g>
<g >
</g>
<g >
</g>
<g >
</g>
<g >
</g>
<g >
</g>
<g >
</g>
<g >
</g>
<g >
</g>
<g >
</g>
<g >
</g>
<g >
</g>
<g >
</g>
<g >
</g>
<g >
</g>
<g >
</g>
<g >
</g>
<g >
</g>
<g >
</g>
<g >
</g>
<g >
</g>
<g >
</g>
<g >
</g>
<g >
</g>
</g> 
</svg>
